ffmpeg version 4.4.2-0ubuntu0.22.04.1 Copyright (c) 2000-2021 the FFmpeg developers
  built with gcc 11 (Ubuntu 11.2.0-19ubuntu1)
  configuration: --prefix=/usr --extra-version=0ubuntu0.22.04.1 --toolchain=hardened --libdir=/usr/lib/x86_64-linux-gnu --incdir=/usr/include/x86_64-linux-gnu --arch=amd64 --enable-gpl --disable-stripping --enable-gnutls --enable-ladspa --enable-libaom --enable-libass --enable-libbluray --enable-libbs2b --enable-libcaca --enable-libcdio --enable-libcodec2 --enable-libdav1d --enable-libflite --enable-libfontconfig --enable-libfreetype --enable-libfribidi --enable-libgme --enable-libgsm --enable-libjack --enable-libmp3lame --enable-libmysofa --enable-libopenjpeg --enable-libopenmpt --enable-libopus --enable-libpulse --enable-librabbitmq --enable-librubberband --enable-libshine --enable-libsnappy --enable-libsoxr --enable-libspeex --enable-libsrt --enable-libssh --enable-libtheora --enable-libtwolame --enable-libvidstab --enable-libvorbis --enable-libvpx --enable-libwebp --enable-libx265 --enable-libxml2 --enable-libxvid --enable-libzimg --enable-libzmq --enable-libzvbi --enable-lv2 --enable-omx --enable-openal --enable-opencl --enable-opengl --enable-sdl2 --enable-pocketsphinx --enable-librsvg --enable-libmfx --enable-libdc1394 --enable-libdrm --enable-libiec61883 --enable-chromaprint --enable-frei0r --enable-libx264 --enable-shared
  libavutil      56. 70.100 / 56. 70.100
  libavcodec     58.134.100 / 58.134.100
  libavformat    58. 76.100 / 58. 76.100
  libavdevice    58. 13.100 / 58. 13.100
  libavfilter     7.110.100 /  7.110.100
  libswscale      5.  9.100 /  5.  9.100
  libswresample   3.  9.100 /  3.  9.100
  libpostproc    55.  9.100 / 55.  9.100
Input #0, flv, from '/storage/32426326/20250723/32426326-20250723-145347-056.flv':
  Metadata:
    fileSize        : 0
    7.1             : false
    fps             : 60
    displayHeight   : 1440
    audiochannels   : 2
    encoder         : obs-output module (libobs version 31.0.2)
    3.1             : false
    4.0             : false
    5.1             : false
    displayWidth    : 2560
    4.1             : false
    cdn_ip          : 192.168.252.3
    2.1             : false
    Title           : 技术主播没有GG
    Artist          : 蓝音BuBuLine (32426326)
    Comment         : mikufans直播间 32426326 的直播录像
                    : 主播名: 蓝音BuBuLine
                    : 直播标题: 技术主播没有GG
                    : 直播分区: 单机游戏·主机游戏
                    : 录制时间: 2025-07-23T14:53:47.0878727+00:00
                    : 直播服务器:
                    : d1--ov-gotcha07b.bilivideo.com [156.59.188.243]
                    : 
                    : 使用 mikufans录播姬 录制 https://rec.danmuji.org
                    : 录播姬版本: 2.17.3
    RecordedBy      : BililiveRecorder mikufans录播姬
    RecordedFrom    : d1--ov-gotcha07b.bilivideo.com
    StreamServers   : d1--ov-gotcha07b.bilivideo.com [156.59.188.243]
    RecorderVersion : 2.17.3+Branch.tags-v2.17.3.Sha.96407e2eba9a597dd9997c6fb731725f4294a371
    StartTime       : Wed, 23 Jul 2025 14:53:47 +0000
    RoomId          : 32426326
    ShortId         : 0
    Name            : 蓝音BuBuLine
    StreamTitle     : 技术主播没有GG
    AreaNameParent  : 单机游戏
    AreaNameChild   : 主机游戏
  Duration: 06:02:52.21, start: 0.035000, bitrate: 8174 kb/s
  Stream #0:0: Video: h264 (High), yuv420p(tv, bt709, progressive), 2560x1440 [SAR 1:1 DAR 16:9], 10240 kb/s, 60 fps, 60 tbr, 1k tbn, 120 tbc
  Stream #0:1: Audio: aac (LC), 48000 Hz, stereo, fltp, 196 kb/s
Stream mapping:
  Stream #0:0 -> #0:0 (h264 (native) -> png (native))
Press [q] to stop, [?] for help
Output #0, image2, to '/storage/32426326/20250723/32426326-20250723-145347-056.all.thumb.png':
  Metadata:
    fileSize        : 0
    7.1             : false
    fps             : 60
    displayHeight   : 1440
    audiochannels   : 2
    AreaNameChild   : 主机游戏
    3.1             : false
    4.0             : false
    5.1             : false
    displayWidth    : 2560
    4.1             : false
    cdn_ip          : 192.168.252.3
    2.1             : false
    Title           : 技术主播没有GG
    Artist          : 蓝音BuBuLine (32426326)
    Comment         : mikufans直播间 32426326 的直播录像
                    : 主播名: 蓝音BuBuLine
                    : 直播标题: 技术主播没有GG
                    : 直播分区: 单机游戏·主机游戏
                    : 录制时间: 2025-07-23T14:53:47.0878727+00:00
                    : 直播服务器:
                    : d1--ov-gotcha07b.bilivideo.com [156.59.188.243]
                    : 
                    : 使用 mikufans录播姬 录制 https://rec.danmuji.org
                    : 录播姬版本: 2.17.3
    RecordedBy      : BililiveRecorder mikufans录播姬
    RecordedFrom    : d1--ov-gotcha07b.bilivideo.com
    StreamServers   : d1--ov-gotcha07b.bilivideo.com [156.59.188.243]
    RecorderVersion : 2.17.3+Branch.tags-v2.17.3.Sha.96407e2eba9a597dd9997c6fb731725f4294a371
    StartTime       : Wed, 23 Jul 2025 14:53:47 +0000
    RoomId          : 32426326
    ShortId         : 0
    Name            : 蓝音BuBuLine
    StreamTitle     : 技术主播没有GG
    AreaNameParent  : 单机游戏
    encoder         : Lavf58.76.100
  Stream #0:0: Video: png, rgb24(pc, gbr/bt709/bt709, progressive), 2560x1440 [SAR 1:1 DAR 16:9], q=2-31, 200 kb/s, 60 fps, 60 tbn
    Metadata:
      encoder         : Lavc58.134.100 png
frame=    1 fps=0.0 q=0.0 size=N/A time=00:00:00.00 bitrate=N/A speed=   0x    frame=    1 fps=0.0 q=-0.0 Lsize=N/A time=00:00:00.01 bitrate=N/A speed=0.0281x    
video:1939kB audio:0kB subtitle:0kB other streams:0kB global headers:0kB muxing overhead: unknown
ffmpeg version 4.4.2-0ubuntu0.22.04.1 Copyright (c) 2000-2021 the FFmpeg developers
  built with gcc 11 (Ubuntu 11.2.0-19ubuntu1)
  configuration: --prefix=/usr --extra-version=0ubuntu0.22.04.1 --toolchain=hardened --libdir=/usr/lib/x86_64-linux-gnu --incdir=/usr/include/x86_64-linux-gnu --arch=amd64 --enable-gpl --disable-stripping --enable-gnutls --enable-ladspa --enable-libaom --enable-libass --enable-libbluray --enable-libbs2b --enable-libcaca --enable-libcdio --enable-libcodec2 --enable-libdav1d --enable-libflite --enable-libfontconfig --enable-libfreetype --enable-libfribidi --enable-libgme --enable-libgsm --enable-libjack --enable-libmp3lame --enable-libmysofa --enable-libopenjpeg --enable-libopenmpt --enable-libopus --enable-libpulse --enable-librabbitmq --enable-librubberband --enable-libshine --enable-libsnappy --enable-libsoxr --enable-libspeex --enable-libsrt --enable-libssh --enable-libtheora --enable-libtwolame --enable-libvidstab --enable-libvorbis --enable-libvpx --enable-libwebp --enable-libx265 --enable-libxml2 --enable-libxvid --enable-libzimg --enable-libzmq --enable-libzvbi --enable-lv2 --enable-omx --enable-openal --enable-opencl --enable-opengl --enable-sdl2 --enable-pocketsphinx --enable-librsvg --enable-libmfx --enable-libdc1394 --enable-libdrm --enable-libiec61883 --enable-chromaprint --enable-frei0r --enable-libx264 --enable-shared
  libavutil      56. 70.100 / 56. 70.100
  libavcodec     58.134.100 / 58.134.100
  libavformat    58. 76.100 / 58. 76.100
  libavdevice    58. 13.100 / 58. 13.100
  libavfilter     7.110.100 /  7.110.100
  libswscale      5.  9.100 /  5.  9.100
  libswresample   3.  9.100 /  3.  9.100
  libpostproc    55.  9.100 / 55.  9.100
[flv @ 0x5a13c1a87400] Auto-inserting h264_mp4toannexb bitstream filter
Input #0, concat, from '/storage/32426326/20250723/32426326-20250723-145347-056.all.concat.txt':
  Duration: N/A, start: 0.000000, bitrate: 10436 kb/s
  Stream #0:0: Video: h264 (High), yuv420p(tv, bt709, progressive), 2560x1440 [SAR 1:1 DAR 16:9], 10240 kb/s, 60 fps, 60 tbr, 1k tbn, 120 tbc
  Stream #0:1: Audio: aac (LC), 48000 Hz, stereo, fltp, 196 kb/s
Output #0, flv, to '/storage/32426326/20250723/32426326-20250723-145347-056.all.flv':
  Metadata:
    encoder         : Lavf58.76.100
  Stream #0:0: Video: h264 (High) ([7][0][0][0] / 0x0007), yuv420p(tv, bt709, progressive), 2560x1440 [SAR 1:1 DAR 16:9], q=2-31, 10240 kb/s, 60 fps, 60 tbr, 1k tbn, 1k tbc
  Stream #0:1: Audio: aac (LC) ([10][0][0][0] / 0x000A), 48000 Hz, stereo, fltp, 196 kb/s
Stream mapping:
  Stream #0:0 -> #0:0 (copy)
  Stream #0:1 -> #0:1 (copy)
Press [q] to stop, [?] for help
frame=    1 fps=0.0 q=-1.0 size=       0kB time=00:00:00.00 bitrate=N/A speed=   0x    frame= 6299 fps=0.0 q=-1.0 size=   25856kB time=00:01:45.00 bitrate=2017.2kbits/s speed= 210x    frame=10154 fps=10122 q=-1.0 size=   52992kB time=00:02:49.23 bitrate=2565.1kbits/s speed= 169x    frame=13024 fps=8657 q=-1.0 size=   81408kB time=00:03:37.01 bitrate=3073.1kbits/s speed= 144x    frame=14490 fps=7228 q=-1.0 size=  110848kB time=00:04:01.44 bitrate=3761.0kbits/s speed= 120x    frame=15881 fps=6338 q=-1.0 size=  139776kB time=00:04:24.61 bitrate=4327.2kbits/s speed= 106x    frame=17257 fps=5741 q=-1.0 size=  168448kB time=00:04:47.56 bitrate=4798.7kbits/s speed=95.7x    frame=18618 fps=5309 q=-1.0 size=  196864kB time=00:05:10.20 bitrate=5198.8kbits/s speed=88.5x    frame=20004 fps=4992 q=-1.0 size=  225536kB time=00:05:33.30 bitrate=5543.2kbits/s speed=83.2x    frame=21394 fps=4747 q=-1.0 size=  254464kB time=00:05:56.46 bitrate=5847.8kbits/s speed=79.1x    frame=22781 fps=4548 q=-1.0 size=  283392kB time=00:06:19.58 bitrate=6116.1kbits/s speed=75.8x    frame=24168 fps=4387 q=-1.0 size=  312064kB time=00:06:42.64 bitrate=6349.0kbits/s speed=73.1x    frame=25528 fps=4247 q=-1.0 size=  340480kB time=00:07:05.34 bitrate=6557.6kbits/s speed=70.8x    frame=26918 fps=4134 q=-1.0 size=  369408kB time=00:07:28.50 bitrate=6747.3kbits/s speed=68.9x    frame=28311 fps=4038 q=-1.0 size=  398336kB time=00:07:51.69 bitrate=6918.0kbits/s speed=67.3x    frame=29679 fps=3951 q=-1.0 size=  427008kB time=00:08:14.47 bitrate=7074.2kbits/s speed=65.8x    frame=31141 fps=3887 q=-1.0 size=  456960kB time=00:08:38.78 bitrate=7215.8kbits/s speed=64.8x    frame=32594 fps=3828 q=-1.0 size=  487424kB time=00:09:03.01 bitrate=7353.4kbits/s speed=63.8x    frame=34172 fps=3790 q=-1.0 size=  520448kB time=00:09:29.29 bitrate=7489.1kbits/s speed=63.1x    frame=35716 fps=3753 q=-1.0 size=  552448kB time=00:09:54.98 bitrate=7606.4kbits/s speed=62.5x    frame=37284 fps=3722 q=-1.0 size=  584960kB time=00:10:21.11 bitrate=7715.2kbits/s speed=  62x    frame=38885 fps=3697 q=-1.0 size=  618240kB time=00:10:47.77 bitrate=7818.5kbits/s speed=61.6x    frame=40525 fps=3678 q=-1.0 size=  652288kB time=00:11:15.07 bitrate=7915.5kbits/s speed=61.3x    frame=41923 fps=3639 q=-1.0 size=  681472kB time=00:11:38.33 bitrate=7994.2kbits/s speed=60.6x    frame=43515 fps=3620 q=-1.0 size=  714496kB time=00:12:04.87 bitrate=8074.8kbits/s speed=60.3x    frame=45188 fps=3609 q=-1.0 size=  747264kB time=00:12:32.76 bitrate=8132.2kbits/s speed=60.1x    frame=46830 fps=3596 q=-1.0 size=  781312kB time=00:13:00.10 bitrate=8204.7kbits/s speed=59.9x    frame=48438 fps=3582 q=-1.0 size=  814848kB time=00:13:26.89 bitrate=8272.8kbits/s speed=59.7x    frame=49847 fps=3555 q=-1.0 size=  844032kB time=00:13:50.37 bitrate=8326.7kbits/s speed=59.2x    frame=51218 fps=3527 q=-1.0 size=  872704kB time=00:14:13.21 bitrate=8379.2kbits/s speed=58.7x    frame=52612 fps=3502 q=-1.0 size=  901632kB time=00:14:36.44 bitrate=8427.4kbits/s speed=58.3x    frame=53989 fps=3478 q=-1.0 size=  930304kB time=00:14:59.38 bitrate=8473.6kbits/s speed=57.9x    frame=55401 fps=3457 q=-1.0 size=  959488kB time=00:15:22.91 bitrate=8516.7kbits/s speed=57.6x    frame=56778 fps=3436 q=-1.0 size=  988160kB time=00:15:45.85 bitrate=8558.4kbits/s speed=57.2x    frame=58140 fps=3415 q=-1.0 size= 1016576kB time=00:16:08.53 bitrate=8598.3kbits/s speed=56.9x    frame=59511 fps=3396 q=-1.0 size= 1044992kB time=00:16:31.37 bitrate=8635.1kbits/s speed=56.6x    frame=60886 fps=3378 q=-1.0 size= 1073664kB time=00:16:54.28 bitrate=8671.6kbits/s speed=56.3x    frame=62263 fps=3361 q=-1.0 size= 1102336kB time=00:17:17.22 bitrate=8706.3kbits/s speed=  56x    frame=63645 fps=3345 q=-1.0 size= 1131008kB time=00:17:40.23 bitrate=8738.9kbits/s speed=55.7x    frame=65023 fps=3330 q=-1.0 size= 1159680kB time=00:18:03.14 bitrate=8770.9kbits/s speed=55.5x    frame=66414 fps=3316 q=-1.0 size= 1188608kB time=00:18:26.32 bitrate=8801.3kbits/s speed=55.2x    frame=67779 fps=3302 q=-1.0 size= 1217024kB time=00:18:49.05 bitrate=8830.3kbits/s speed=  55x    frame=69148 fps=3288 q=-1.0 size= 1245440kB time=00:19:11.89 bitrate=8857.3kbits/s speed=54.8x    frame=70525 fps=3275 q=-1.0 size= 1274112kB time=00:19:34.82 bitrate=8884.3kbits/s speed=54.6x    frame=71841 fps=3261 q=-1.0 size= 1301248kB time=00:19:56.73 bitrate=8907.4kbits/s speed=54.3x    frame=73213 fps=3249 q=-1.0 size= 1329920kB time=00:20:19.57 bitrate=8933.2kbits/s speed=54.1x    frame=74600 fps=3239 q=-1.0 size= 1358848kB time=00:20:42.64 bitrate=8958.0kbits/s speed=53.9x    frame=75960 fps=3228 q=-1.0 size= 1387008kB time=00:21:05.32 bitrate=8979.8kbits/s speed=53.8x    frame=78123 fps=3250 q=-1.0 size= 1416960kB time=00:21:41.35 bitrate=8919.7kbits/s speed=54.1x    frame=81363 fps=3316 q=-1.0 size= 1443584kB time=00:22:35.33 bitrate=8725.4kbits/s speed=55.2x    frame=83963 fps=3354 q=-1.0 size= 1474560kB time=00:23:18.65 bitrate=8636.6kbits/s speed=55.9x    frame=86564 fps=3390 q=-1.0 size= 1507072kB time=00:24:01.98 bitrate=8561.8kbits/s speed=56.5x    frame=88292 fps=3391 q=-1.0 size= 1540608kB time=00:24:30.75 bitrate=8581.1kbits/s speed=56.5x    frame=89737 fps=3382 q=-1.0 size= 1569024kB time=00:24:54.84 bitrate=8598.5kbits/s speed=56.3x    frame=92052 fps=3405 q=-1.0 size= 1596672kB time=00:25:33.41 bitrate=8529.9kbits/s speed=56.7x    frame=93929 fps=3411 q=-1.0 size= 1625088kB time=00:26:04.64 bitrate=8508.4kbits/s speed=56.8x    frame=95693 fps=3413 q=-1.0 size= 1654016kB time=00:26:34.04 bitrate=8500.2kbits/s speed=56.9x    frame=97496 fps=3416 q=-1.0 size= 1682688kB time=00:27:04.08 bitrate=8487.6kbits/s speed=56.9x    frame=99098 fps=3413 q=-1.0 size= 1711616kB time=00:27:30.74 bitrate=8494.1kbits/s speed=56.8x    frame=100690 fps=3409 q=-1.0 size= 1739520kB time=00:27:57.29 bitrate=8495.9kbits/s speed=56.8x    frame=102341 fps=3407 q=-1.0 size= 1767680kB time=00:28:24.80 bitrate=8494.1kbits/s speed=56.8x    frame=105134 fps=3442 q=-1.0 size= 1795840kB time=00:29:11.30 bitrate=8400.3kbits/s speed=57.3x    frame=106747 fps=3439 q=-1.0 size= 1824256kB time=00:29:38.20 bitrate=8404.2kbits/s speed=57.3x    frame=108326 fps=3434 q=-1.0 size= 1852672kB time=00:30:04.52 bitrate=8410.6kbits/s speed=57.2x    frame=110262 fps=3441 q=-1.0 size= 1880832kB time=00:30:36.77 bitrate=8388.5kbits/s speed=57.3x    frame=111802 fps=3436 q=-1.0 size= 1908736kB time=00:31:02.42 bitrate=8395.7kbits/s speed=57.2x    frame=113462 fps=3434 q=-1.0 size= 1937152kB time=00:31:30.06 bitrate=8396.1kbits/s speed=57.2x    frame=115060 fps=3430 q=-1.0 size= 1966336kB time=00:31:56.70 bitrate=8404.1kbits/s speed=57.1x    frame=117219 fps=3443 q=-1.0 size= 1995776kB time=00:32:32.64 bitrate=8372.9kbits/s speed=57.4x    frame=119071 fps=3447 q=-1.0 size= 2025984kB time=00:33:03.49 bitrate=8367.5kbits/s speed=57.4x    frame=120617 fps=3442 q=-1.0 size= 2055168kB time=00:33:29.24 bitrate=8379.2kbits/s speed=57.3x    frame=122186 fps=3437 q=-1.0 size= 2084096kB time=00:33:55.41 bitrate=8387.9kbits/s speed=57.3x    frame=123811 fps=3435 q=-1.0 size= 2113792kB time=00:34:22.44 bitrate=8396.0kbits/s speed=57.2x    frame=125702 fps=3439 q=-1.0 size= 2143488kB time=00:34:53.98 bitrate=8385.7kbits/s speed=57.3x    frame=127347 fps=3437 q=-1.0 size= 2173696kB time=00:35:21.37 bitrate=8394.0kbits/s speed=57.3x    frame=129064 fps=3437 q=-1.0 size= 2203136kB time=00:35:49.94 bitrate=8394.7kbits/s speed=57.3x    frame=130614 fps=3433 q=-1.0 size= 2232064kB time=00:36:15.78 bitrate=8403.9kbits/s speed=57.2x    frame=132762 fps=3444 q=-1.0 size= 2260992kB time=00:36:51.53 bitrate=8375.2kbits/s speed=57.4x    frame=134154 fps=3435 q=-1.0 size= 2288896kB time=00:37:14.74 bitrate=8390.5kbits/s speed=57.2x    frame=135611 fps=3429 q=-1.0 size= 2317824kB time=00:37:38.99 bitrate=8405.3kbits/s speed=57.1x    frame=137084 fps=3422 q=-1.0 size= 2346240kB time=00:38:03.54 bitrate=8416.9kbits/s speed=  57x    frame=138624 fps=3418 q=-1.0 size= 2374144kB time=00:38:29.17 bitrate=8422.5kbits/s speed=56.9x    frame=140262 fps=3416 q=-1.0 size= 2403072kB time=00:38:56.48 bitrate=8425.5kbits/s speed=56.9x    frame=141710 fps=3410 q=-1.0 size= 2431744kB time=00:39:20.58 bitrate=8438.9kbits/s speed=56.8x    frame=143071 fps=3402 q=-1.0 size= 2460160kB time=00:39:43.24 bitrate=8456.4kbits/s speed=56.7x    frame=144594 fps=3398 q=-1.0 size= 2488832kB time=00:40:08.60 bitrate=8464.9kbits/s speed=56.6x    frame=145942 fps=3390 q=-1.0 size= 2516736kB time=00:40:31.05 bitrate=8480.7kbits/s speed=56.5x    frame=147470 fps=3386 q=-1.0 size= 2545408kB time=00:40:56.54 bitrate=8488.3kbits/s speed=56.4x    frame=149067 fps=3384 q=-1.0 size= 2575616kB time=00:41:23.15 bitrate=8497.0kbits/s speed=56.4x    frame=150511 fps=3378 q=-1.0 size= 2603520kB time=00:41:47.19 bitrate=8506.7kbits/s speed=56.3x    frame=151895 fps=3371 q=-1.0 size= 2631168kB time=00:42:10.23 bitrate=8518.8kbits/s speed=56.2x    frame=153361 fps=3366 q=-1.0 size= 2659584kB time=00:42:34.62 bitrate=8528.6kbits/s speed=56.1x    frame=154724 fps=3359 q=-1.0 size= 2686720kB time=00:42:57.33 bitrate=8539.7kbits/s speed=  56x    frame=156239 fps=3356 q=-1.0 size= 2715392kB time=00:43:22.57 bitrate=8547.1kbits/s speed=55.9x    frame=157626 fps=3350 q=-1.0 size= 2744064kB time=00:43:45.65 bitrate=8561.4kbits/s speed=55.8x    frame=159049 fps=3344 q=-1.0 size= 2772480kB time=00:44:09.36 bitrate=8572.7kbits/s speed=55.7x    frame=160553 fps=3341 q=-1.0 size= 2800640kB time=00:44:34.41 bitrate=8578.6kbits/s speed=55.6x    frame=161916 fps=3334 q=-1.0 size= 2828544kB time=00:44:57.09 bitrate=8591.3kbits/s speed=55.5x    frame=163397 fps=3331 q=-1.0 size= 2857472kB time=00:45:21.76 bitrate=8600.4kbits/s speed=55.5x    frame=165562 fps=3341 q=-1.0 size= 2886400kB time=00:45:57.81 bitrate=8573.9kbits/s speed=55.6x    frame=167419 fps=3344 q=-1.0 size= 2914816kB time=00:46:28.73 bitrate=8562.4kbits/s speed=55.7x    frame=168828 fps=3339 q=-1.0 size= 2942464kB time=00:46:52.22 bitrate=8571.4kbits/s speed=55.6x    frame=170669 fps=3342 q=-1.0 size= 2969856kB time=00:47:22.86 bitrate=8557.9kbits/s speed=55.7x    frame=172461 fps=3345 q=-1.0 size= 2997504kB time=00:47:52.69 bitrate=8547.9kbits/s speed=55.7x    frame=174289 fps=3348 q=-1.0 size= 3025664kB time=00:48:23.12 bitrate=8537.8kbits/s speed=55.8x    frame=176099 fps=3350 q=-1.0 size= 3053312kB time=00:48:53.26 bitrate=8527.3kbits/s speed=55.8x    frame=177865 fps=3352 q=-1.0 size= 3081472kB time=00:49:22.69 bitrate=8520.4kbits/s speed=55.8x    frame=179587 fps=3353 q=-1.0 size= 3109376kB time=00:49:51.34 bitrate=8515.3kbits/s speed=55.8x    frame=181082 fps=3349 q=-1.0 size= 3136768kB time=00:50:16.24 bitrate=8519.3kbits/s speed=55.8x    frame=182529 fps=3345 q=-1.0 size= 3165952kB time=00:50:40.36 bitrate=8530.4kbits/s speed=55.7x    frame=184291 fps=3347 q=-1.0 size= 3194880kB time=00:51:09.67 bitrate=8526.1kbits/s speed=55.7x    frame=186257 fps=3352 q=-1.0 size= 3222272kB time=00:51:42.42 bitrate=8508.5kbits/s speed=55.8x    frame=188278 fps=3358 q=-1.0 size= 3250688kB time=00:52:16.12 bitrate=8491.3kbits/s speed=55.9x    frame=189696 fps=3353 q=-1.0 size= 3277824kB time=00:52:39.76 bitrate=8498.1kbits/s speed=55.9x    frame=191206 fps=3350 q=-1.0 size= 3305984kB time=00:53:04.91 bitrate=8503.4kbits/s speed=55.8x    frame=193027 fps=3353 q=-1.0 size= 3332096kB time=00:53:35.21 bitrate=8489.8kbits/s speed=55.8x    frame=195273 fps=3362 q=-1.0 size= 3359744kB time=00:54:12.66 bitrate=8461.7kbits/s speed=  56x    frame=197463 fps=3371 q=-1.0 size= 3387648kB time=00:54:49.14 bitrate=8437.3kbits/s speed=56.2x    frame=199802 fps=3382 q=-1.0 size= 3415296kB time=00:55:29.00 bitrate=8404.3kbits/s speed=56.4x    frame=201482 fps=3382 q=-1.0 size= 3442944kB time=00:56:08.21 bitrate=8373.7kbits/s speed=56.5x    frame=203472 fps=3387 q=-1.0 size= 3470848kB time=00:56:55.05 bitrate=8325.8kbits/s speed=56.8x    frame=204536 fps=3377 q=-1.0 size= 3500032kB time=00:57:31.21 bitrate=8307.9kbits/s speed=  57x    frame=205847 fps=3370 q=-1.0 size= 3528192kB time=00:58:15.57 bitrate=8268.4kbits/s speed=57.2x    frame=207569 fps=3371 q=-1.0 size= 3558144kB time=00:58:44.25 bitrate=8270.8kbits/s speed=57.2x    frame=209179 fps=3370 q=-1.0 size= 3586048kB time=00:59:11.04 bitrate=8272.8kbits/s speed=57.2x    frame=210881 fps=3370 q=-1.0 size= 3613952kB time=00:59:47.51 bitrate=8252.4kbits/s speed=57.3x    frame=212485 fps=3368 q=-1.0 size= 3641856kB time=01:00:22.15 bitrate=8236.6kbits/s speed=57.4x    frame=214342 fps=3371 q=-1.0 size= 3670272kB time=01:00:53.08 bitrate=8230.6kbits/s speed=57.5x    frame=216868 fps=3384 q=-1.0 size= 3698688kB time=01:01:35.18 bitrate=8199.8kbits/s speed=57.7x    frame=218767 fps=3387 q=-1.0 size= 3726592kB time=01:02:06.81 bitrate=8191.5kbits/s speed=57.7x    frame=221024 fps=3396 q=-1.0 size= 3754752kB time=01:02:44.43 bitrate=8170.9kbits/s speed=57.8x    frame=223813 fps=3413 q=-1.0 size= 3782656kB time=01:03:30.87 bitrate=8131.3kbits/s speed=58.1x    frame=226254 fps=3424 q=-1.0 size= 3810816kB time=01:04:11.53 bitrate=8105.4kbits/s speed=58.3x    frame=228395 fps=3430 q=-1.0 size= 3838464kB time=01:04:47.24 bitrate=8089.2kbits/s speed=58.4x    frame=230820 fps=3441 q=-1.0 size= 3865856kB time=01:05:27.61 bitrate=8063.2kbits/s speed=58.5x    frame=233284 fps=3452 q=-1.0 size= 3893248kB time=01:06:08.65 bitrate=8036.4kbits/s speed=58.7x    frame=235548 fps=3460 q=-1.0 size= 3921664kB time=01:06:46.36 bitrate=8018.8kbits/s speed=58.8x    frame=238118 fps=3472 q=-1.0 size= 3948544kB time=01:07:29.18 bitrate=7988.4kbits/s speed=  59x    frame=240447 fps=3481 q=-1.0 size= 3975936kB time=01:08:07.96 bitrate=7967.5kbits/s speed=59.2x    frame=243269 fps=3496 q=-1.0 size= 4004096kB time=01:08:54.99 bitrate=7932.7kbits/s speed=59.4x    frame=245212 fps=3499 q=-1.0 size= 4033280kB time=01:09:27.34 bitrate=7928.5kbits/s speed=59.5x    frame=247394 fps=3505 q=-1.0 size= 4061952kB time=01:10:03.69 bitrate=7915.8kbits/s speed=59.6x    frame=249477 fps=3509 q=-1.0 size= 4090880kB time=01:10:38.39 bitrate=7906.9kbits/s speed=59.6x    frame=251456 fps=3513 q=-1.0 size= 4118528kB time=01:11:11.32 bitrate=7898.9kbits/s speed=59.7x    frame=253430 fps=3516 q=-1.0 size= 4146176kB time=01:11:44.17 bitrate=7891.3kbits/s speed=59.7x    frame=255432 fps=3519 q=-1.0 size= 4174592kB time=01:12:17.52 bitrate=7884.3kbits/s speed=59.8x    frame=258564 fps=3538 q=-1.0 size= 4204544kB time=01:13:09.72 bitrate=7846.4kbits/s speed=60.1x    frame=260590 fps=3541 q=-1.0 size= 4233984kB time=01:13:43.46 bitrate=7841.1kbits/s speed=60.1x    frame=262538 fps=3543 q=-1.0 size= 4262144kB time=01:14:15.91 bitrate=7835.8kbits/s speed=60.1x    frame=264726 fps=3549 q=-1.0 size= 4291072kB time=01:14:52.34 bitrate=7825.0kbits/s speed=60.2x    frame=267336 fps=3560 q=-1.0 size= 4319488kB time=01:15:35.83 bitrate=7801.3kbits/s speed=60.4x    frame=269348 fps=3563 q=-1.0 size= 4348416kB time=01:16:09.35 bitrate=7795.9kbits/s speed=60.4x    frame=271357 fps=3566 q=-1.0 size= 4377344kB time=01:16:42.85 bitrate=7790.6kbits/s speed=60.5x    frame=273352 fps=3569 q=-1.0 size= 4405248kB time=01:17:16.06 bitrate=7784.2kbits/s speed=60.5x    frame=275420 fps=3573 q=-1.0 size= 4434176kB time=01:17:50.51 bitrate=7777.5kbits/s speed=60.6x    frame=277529 fps=3577 q=-1.0 size= 4463360kB time=01:18:25.68 bitrate=7770.1kbits/s speed=60.6x    frame=279525 fps=3579 q=-1.0 size= 4491520kB time=01:18:58.90 bitrate=7764.4kbits/s speed=60.7x    frame=281643 fps=3584 q=-1.0 size= 4520704kB time=01:19:34.19 bitrate=7757.0kbits/s speed=60.7x    frame=283798 fps=3588 q=-1.0 size= 4549888kB time=01:20:10.06 bitrate=7748.9kbits/s speed=60.8x    frame=285893 fps=3592 q=-1.0 size= 4578304kB time=01:20:44.99 bitrate=7741.1kbits/s speed=60.9x    frame=287961 fps=3595 q=-1.0 size= 4606976kB time=01:21:19.46 bitrate=7734.5kbits/s speed=60.9x    frame=290076 fps=3599 q=-1.0 size= 4636160kB time=01:21:54.68 bitrate=7727.7kbits/s speed=  61x    frame=292145 fps=3602 q=-1.0 size= 4664576kB time=01:22:29.14 bitrate=7721.0kbits/s speed=  61x    frame=294267 fps=3606 q=-1.0 size= 4694784kB time=01:23:04.50 bitrate=7715.8kbits/s speed=61.1x    frame=296196 fps=3608 q=-1.0 size= 4724992kB time=01:23:36.63 bitrate=7715.8kbits/s speed=61.1x    frame=298230 fps=3611 q=-1.0 size= 4755968kB time=01:24:10.51 bitrate=7714.2kbits/s speed=61.1x    frame=300354 fps=3615 q=-1.0 size= 4786432kB time=01:24:45.93 bitrate=7709.6kbits/s speed=61.2x    frame=302401 fps=3617 q=-1.0 size= 4816384kB time=01:25:20.01 bitrate=7706.2kbits/s speed=61.2x    frame=304910 fps=3626 q=-1.0 size= 4846592kB time=01:26:01.81 bitrate=7691.7kbits/s speed=61.4x    frame=307933 fps=3640 q=-1.0 size= 4875264kB time=01:26:52.19 bitrate=7662.4kbits/s speed=61.6x    frame=309503 fps=3637 q=-1.0 size= 4904192kB time=01:27:18.32 bitrate=7669.5kbits/s speed=61.6x    frame=311141 fps=3635 q=-1.0 size= 4934400kB time=01:27:45.62 bitrate=7676.7kbits/s speed=61.5x    frame=313273 fps=3639 q=-1.0 size= 4964608kB time=01:28:21.17 bitrate=7671.9kbits/s speed=61.6x    frame=315108 fps=3639 q=-1.0 size= 4997376kB time=01:28:51.71 bitrate=7678.3kbits/s speed=61.6x    frame=316710 fps=3636 q=-1.0 size= 5028608kB time=01:29:18.43 bitrate=7687.8kbits/s speed=61.5x    frame=318381 fps=3635 q=-1.0 size= 5059072kB time=01:29:46.26 bitrate=7694.4kbits/s speed=61.5x    frame=320168 fps=3634 q=-1.0 size= 5091584kB time=01:30:16.00 bitrate=7701.3kbits/s speed=61.5x    frame=321878 fps=3633 q=-1.0 size= 5122816kB time=01:30:44.49 bitrate=7708.0kbits/s speed=61.5x    frame=323761 fps=3634 q=-1.0 size= 5155840kB time=01:31:15.87 bitrate=7713.2kbits/s speed=61.5x    frame=325446 fps=3632 q=-1.0 size= 5187840kB time=01:31:43.98 bitrate=7721.5kbits/s speed=61.4x    frame=327195 fps=3631 q=-1.0 size= 5219072kB time=01:32:13.09 bitrate=7727.1kbits/s speed=61.4x    frame=328878 fps=3630 q=-1.0 size= 5250560kB time=01:32:41.13 bitrate=7734.5kbits/s speed=61.4x    frame=330707 fps=3630 q=-1.0 size= 5282048kB time=01:33:11.62 bitrate=7738.5kbits/s speed=61.4x    frame=332430 fps=3629 q=-1.0 size= 5313792kB time=01:33:40.31 bitrate=7745.2kbits/s speed=61.4x    frame=334857 fps=3636 q=-1.0 size= 5345024kB time=01:34:20.77 bitrate=7735.1kbits/s speed=61.5x    frame=336465 fps=3633 q=-1.0 size= 5375232kB time=01:34:47.56 bitrate=7742.1kbits/s speed=61.4x    frame=338236 fps=3633 q=-1.0 size= 5408256kB time=01:35:17.08 bitrate=7749.5kbits/s speed=61.4x    frame=339790 fps=3630 q=-1.0 size= 5437440kB time=01:35:42.97 bitrate=7756.2kbits/s speed=61.4x    frame=341637 fps=3630 q=-1.0 size= 5471744kB time=01:36:13.74 bitrate=7763.5kbits/s speed=61.4x    frame=343158 fps=3627 q=-1.0 size= 5502208kB time=01:36:39.05 bitrate=7772.7kbits/s speed=61.3x    frame=344919 fps=3627 q=-1.0 size= 5534464kB time=01:37:08.38 bitrate=7778.9kbits/s speed=61.3x    frame=346583 fps=3625 q=-1.0 size= 5565696kB time=01:37:36.11 bitrate=7785.7kbits/s speed=61.3x    frame=348270 fps=3624 q=-1.0 size= 5597696kB time=01:38:04.20 bitrate=7793.1kbits/s speed=61.2x    frame=349972 fps=3623 q=-1.0 size= 5630464kB time=01:38:32.55 bitrate=7801.2kbits/s speed=61.2x    frame=351633 fps=3621 q=-1.0 size= 5661952kB time=01:39:00.18 bitrate=7808.3kbits/s speed=61.2x    frame=353341 fps=3620 q=-1.0 size= 5694208kB time=01:39:28.66 bitrate=7815.3kbits/s speed=61.2x    frame=354982 fps=3618 q=-1.0 size= 5725184kB time=01:39:55.99 bitrate=7822.0kbits/s speed=61.1x    frame=356655 fps=3617 q=-1.0 size= 5756672kB time=01:40:23.84 bitrate=7828.7kbits/s speed=61.1x    frame=358414 fps=3616 q=-1.0 size= 5790208kB time=01:40:53.12 bitrate=7836.2kbits/s speed=61.1x    frame=360054 fps=3615 q=-1.0 size= 5820928kB time=01:41:20.44 bitrate=7842.4kbits/s speed=  61x    frame=361737 fps=3613 q=-1.0 size= 5853184kB time=01:41:48.49 bitrate=7849.6kbits/s speed=  61x    frame=363270 fps=3611 q=-1.0 size= 5883648kB time=01:42:14.04 bitrate=7857.6kbits/s speed=  61x    frame=365225 fps=3612 q=-1.0 size= 5915648kB time=01:42:46.58 bitrate=7858.6kbits/s speed=  61x    frame=367803 fps=3620 q=-1.0 size= 5941504kB time=01:43:29.52 bitrate=7838.4kbits/s speed=61.1x    frame=370149 fps=3625 q=-1.0 size= 5967360kB time=01:44:08.63 bitrate=7823.2kbits/s speed=61.2x    frame=371718 fps=3623 q=-1.0 size= 5995776kB time=01:44:34.74 bitrate=7827.8kbits/s speed=61.2x    frame=373918 fps=3626 q=-1.0 size= 6026496kB time=01:45:11.37 bitrate=7822.2kbits/s speed=61.2x    frame=375481 fps=3624 q=-1.0 size= 6054912kB time=01:45:37.43 bitrate=7826.8kbits/s speed=61.2x    frame=377065 fps=3622 q=-1.0 size= 6078976kB time=01:46:03.81 bitrate=7825.3kbits/s speed=61.1x    frame=378360 fps=3617 q=-1.0 size= 6103808kB time=01:46:25.37 bitrate=7830.8kbits/s speed=  61x    frame=380823 fps=3623 q=-1.0 size= 6131968kB time=01:47:06.39 bitrate=7816.7kbits/s speed=61.1x    frame=382615 fps=3623 q=-1.0 size= 6162944kB time=01:47:36.23 bitrate=7819.9kbits/s speed=61.1x    frame=384177 fps=3620 q=-1.0 size= 6194432kB time=01:48:02.23 bitrate=7828.3kbits/s speed=61.1x    frame=386193 fps=3622 q=-1.0 size= 6223872kB time=01:48:35.84 bitrate=7824.9kbits/s speed=61.1x    frame=387990 fps=3622 q=-1.0 size= 6254592kB time=01:49:05.76 bitrate=7827.6kbits/s speed=61.1x    frame=391123 fps=3635 q=-1.0 size= 6284288kB time=01:49:57.98 bitrate=7802.5kbits/s speed=61.3x    frame=393673 fps=3641 q=-1.0 size= 6312704kB time=01:50:40.43 bitrate=7787.7kbits/s speed=61.4x    frame=395680 fps=3643 q=-1.0 size= 6343680kB time=01:51:13.87 bitrate=7786.7kbits/s speed=61.4x    frame=397561 fps=3643 q=-1.0 size= 6374400kB time=01:51:45.22 bitrate=7787.8kbits/s speed=61.5x    frame=399300 fps=3643 q=-1.0 size= 6406400kB time=01:52:14.17 bitrate=7793.3kbits/s speed=61.4x    frame=402495 fps=3655 q=-1.0 size= 6436096kB time=01:53:07.39 bitrate=7768.0kbits/s speed=61.6x    frame=404153 fps=3654 q=-1.0 size= 6466816kB time=01:53:35.05 bitrate=7773.4kbits/s speed=61.6x    frame=405974 fps=3653 q=-1.0 size= 6496000kB time=01:54:05.34 bitrate=7773.9kbits/s speed=61.6x    frame=407955 fps=3655 q=-1.0 size= 6526208kB time=01:54:38.36 bitrate=7772.6kbits/s speed=61.6x    frame=409780 fps=3655 q=-1.0 size= 6557440kB time=01:55:08.77 bitrate=7775.4kbits/s speed=61.6x    frame=412028 fps=3659 q=-1.0 size= 6587904kB time=01:55:46.19 bitrate=7769.4kbits/s speed=61.7x    frame=414428 fps=3664 q=-1.0 size= 6620160kB time=01:56:26.19 bitrate=7762.8kbits/s speed=61.8x    frame=416493 fps=3666 q=-1.0 size= 6652160kB time=01:57:00.57 bitrate=7762.1kbits/s speed=61.8x    frame=418155 fps=3664 q=-1.0 size= 6683904kB time=01:57:28.28 bitrate=7768.5kbits/s speed=61.8x    frame=419868 fps=3663 q=-1.0 size= 6714880kB time=01:57:56.82 bitrate=7773.0kbits/s speed=61.7x    frame=421619 fps=3662 q=-1.0 size= 6746112kB time=01:58:25.96 bitrate=7777.1kbits/s speed=61.7x    frame=423448 fps=3662 q=-1.0 size= 6778880kB time=01:58:56.44 bitrate=7781.6kbits/s speed=61.7x    frame=425388 fps=3663 q=-1.0 size= 6810880kB time=01:59:28.75 bitrate=7783.0kbits/s speed=61.7x    frame=427153 fps=3663 q=-1.0 size= 6840576kB time=01:59:58.16 bitrate=7785.0kbits/s speed=61.7x    frame=428915 fps=3662 q=-1.0 size= 6869504kB time=02:00:27.53 bitrate=7786.2kbits/s speed=61.7x    frame=430539 fps=3660 q=-1.0 size= 6897920kB time=02:00:54.59 bitrate=7789.2kbits/s speed=61.7x    frame=432066 fps=3658 q=-1.0 size= 6926848kB time=02:01:20.02 bitrate=7794.6kbits/s speed=61.6x    frame=433553 fps=3655 q=-1.0 size= 6956544kB time=02:01:44.76 bitrate=7801.5kbits/s speed=61.6x    frame=435063 fps=3652 q=-1.0 size= 6985472kB time=02:02:09.93 bitrate=7807.0kbits/s speed=61.5x    frame=436747 fps=3651 q=-1.0 size= 7015936kB time=02:02:38.00 bitrate=7811.2kbits/s speed=61.5x    frame=438431 fps=3650 q=-1.0 size= 7046144kB time=02:03:06.02 bitrate=7815.0kbits/s speed=61.5x    frame=440046 fps=3648 q=-1.0 size= 7075328kB time=02:03:32.95 bitrate=7818.9kbits/s speed=61.5x    frame=441736 fps=3647 q=-1.0 size= 7106048kB time=02:04:01.07 bitrate=7823.2kbits/s speed=61.4x    frame=443411 fps=3645 q=-1.0 size= 7136256kB time=02:04:29.00 bitrate=7827.0kbits/s speed=61.4x    frame=444956 fps=3643 q=-1.0 size= 7167232kB time=02:04:54.73 bitrate=7834.0kbits/s speed=61.4x    frame=446465 fps=3641 q=-1.0 size= 7196672kB time=02:05:19.88 bitrate=7839.9kbits/s speed=61.3x    frame=448001 fps=3638 q=-1.0 size= 7225344kB time=02:05:45.47 bitrate=7844.4kbits/s speed=61.3x    frame=449524 fps=3636 q=-1.0 size= 7255296kB time=02:06:10.85 bitrate=7850.6kbits/s speed=61.2x    frame=451058 fps=3634 q=-1.0 size= 7286272kB time=02:06:36.39 bitrate=7857.6kbits/s speed=61.2x    frame=453714 fps=3640 q=-1.0 size= 7316736kB time=02:07:20.64 bitrate=7844.7kbits/s speed=61.3x    frame=456677 fps=3649 q=-1.0 size= 7345152kB time=02:08:10.00 bitrate=7824.6kbits/s speed=61.5x    frame=458856 fps=3652 q=-1.0 size= 7372544kB time=02:08:46.26 bitrate=7817.0kbits/s speed=61.5x    frame=460444 fps=3650 q=-1.0 size= 7403008kB time=02:09:12.71 bitrate=7822.5kbits/s speed=61.5x    frame=462134 fps=3649 q=-1.0 size= 7431680kB time=02:09:40.87 bitrate=7824.4kbits/s speed=61.4x    frame=463736 fps=3647 q=-1.0 size= 7461888kB time=02:10:07.59 bitrate=7829.3kbits/s speed=61.4x    frame=465928 fps=3650 q=-1.0 size= 7491584kB time=02:10:44.10 bitrate=7823.8kbits/s speed=61.5x    frame=467607 fps=3649 q=-1.0 size= 7521024kB time=02:11:12.08 bitrate=7826.7kbits/s speed=61.4x    frame=469243 fps=3648 q=-1.0 size= 7552512kB time=02:11:39.33 bitrate=7832.3kbits/s speed=61.4x    frame=470853 fps=3646 q=-1.0 size= 7584000kB time=02:12:06.17 bitrate=7838.3kbits/s speed=61.4x    frame=472376 fps=3644 q=-1.0 size= 7611392kB time=02:12:31.55 bitrate=7841.5kbits/s speed=61.3x    frame=474061 fps=3643 q=-1.0 size= 7641856kB time=02:12:59.61 bitrate=7845.3kbits/s speed=61.3x    frame=475586 fps=3640 q=-1.0 size= 7671808kB time=02:13:25.03 bitrate=7851.0kbits/s speed=61.3x    frame=479912 fps=3659 q=-1.0 size= 7697920kB time=02:14:37.09 bitrate=7807.4kbits/s speed=61.6x    frame=483277 fps=3671 q=-1.0 size= 7724032kB time=02:15:33.16 bitrate=7779.9kbits/s speed=61.8x    frame=487634 fps=3690 q=-1.0 size= 7749120kB time=02:16:45.75 bitrate=7736.1kbits/s speed=62.1x    frame=490089 fps=3695 q=-1.0 size= 7777792kB time=02:17:26.68 bitrate=7726.2kbits/s speed=62.2x    frame=491484 fps=3691 q=-1.0 size= 7806976kB time=02:17:49.93 bitrate=7733.4kbits/s speed=62.1x    frame=493024 fps=3689 q=-1.0 size= 7835648kB time=02:18:15.57 bitrate=7737.8kbits/s speed=62.1x    frame=494706 fps=3688 q=-1.0 size= 7867648kB time=02:18:43.60 bitrate=7743.3kbits/s speed=  62x    frame=496032 fps=3684 q=-1.0 size= 7895040kB time=02:19:05.66 bitrate=7749.7kbits/s speed=  62x    frame=497512 fps=3681 q=-1.0 size= 7924736kB time=02:19:30.30 bitrate=7755.9kbits/s speed=61.9x    frame=499314 fps=3681 q=-1.0 size= 7954944kB time=02:20:00.35 bitrate=7757.6kbits/s speed=61.9x    frame=501596 fps=3684 q=-1.0 size= 7983616kB time=02:20:38.36 bitrate=7750.5kbits/s speed=  62x    frame=503680 fps=3686 q=-1.0 size= 8013056kB time=02:21:13.08 bitrate=7747.2kbits/s speed=  62x    frame=506350 fps=3692 q=-1.0 size= 8041472kB time=02:21:57.59 bitrate=7734.1kbits/s speed=62.1x    frame=508441 fps=3694 q=-1.0 size= 8072192kB time=02:22:32.43 bitrate=7732.0kbits/s speed=62.1x    frame=510242 fps=3693 q=-1.0 size= 8101632kB time=02:23:02.43 bitrate=7733.1kbits/s speed=62.1x    frame=511938 fps=3692 q=-1.0 size= 8131072kB time=02:23:30.69 bitrate=7735.7kbits/s speed=62.1x    frame=514109 fps=3695 q=-1.0 size= 8162816kB time=02:24:06.84 bitrate=7733.4kbits/s speed=62.1x    frame=515926 fps=3694 q=-1.0 size= 8192000kB time=02:24:37.13 bitrate=7734.0kbits/s speed=62.1x    frame=518134 fps=3697 q=-1.0 size= 8222976kB time=02:25:13.88 bitrate=7730.5kbits/s speed=62.2x    frame=520034 fps=3697 q=-1.0 size= 8253952kB time=02:25:45.58 bitrate=7731.5kbits/s speed=62.2x    frame=522159 fps=3699 q=-1.0 size= 8281600kB time=02:26:20.97 bitrate=7726.1kbits/s speed=62.2x    frame=524507 fps=3703 q=-1.0 size= 8309504kB time=02:27:00.09 bitrate=7717.8kbits/s speed=62.3x    frame=526286 fps=3702 q=-1.0 size= 8340992kB time=02:27:29.72 bitrate=7721.1kbits/s speed=62.3x    frame=528006 fps=3701 q=-1.0 size= 8371712kB time=02:27:58.38 bitrate=7724.5kbits/s speed=62.2x    frame=530377 fps=3705 q=-1.0 size= 8401408kB time=02:28:37.88 bitrate=7717.6kbits/s speed=62.3x    frame=533024 fps=3710 q=-1.0 size= 8431104kB time=02:29:21.95 bitrate=7706.8kbits/s speed=62.4x    frame=534885 fps=3710 q=-1.0 size= 8460288kB time=02:29:52.95 bitrate=7706.8kbits/s speed=62.4x    frame=536979 fps=3712 q=-1.0 size= 8491520kB time=02:30:27.82 bitrate=7705.4kbits/s speed=62.4x    frame=539681 fps=3718 q=-1.0 size= 8520960kB time=02:31:12.82 bitrate=7693.7kbits/s speed=62.5x    frame=541297 fps=3716 q=-1.0 size= 8548864kB time=02:31:39.73 bitrate=7696.1kbits/s speed=62.5x    frame=542961 fps=3715 q=-1.0 size= 8578304kB time=02:32:07.43 bitrate=7699.1kbits/s speed=62.4x    frame=544600 fps=3713 q=-1.0 size= 8608256kB time=02:32:34.76 bitrate=7703.0kbits/s speed=62.4x    frame=546264 fps=3712 q=-1.0 size= 8636928kB time=02:33:02.47 bitrate=7705.3kbits/s speed=62.4x    frame=547993 fps=3711 q=-1.0 size= 8667392kB time=02:33:31.28 bitrate=7708.3kbits/s speed=62.4x    frame=550212 fps=3714 q=-1.0 size= 8696320kB time=02:34:08.21 bitrate=7703.1kbits/s speed=62.4x    frame=552504 fps=3717 q=-1.0 size= 8727808kB time=02:34:46.42 bitrate=7699.2kbits/s speed=62.5x    frame=554269 fps=3716 q=-1.0 size= 8760576kB time=02:35:15.82 bitrate=7703.7kbits/s speed=62.5x    frame=556010 fps=3715 q=-1.0 size= 8791808kB time=02:35:44.80 bitrate=7707.2kbits/s speed=62.4x    frame=558300 fps=3718 q=-1.0 size= 8822016kB time=02:36:22.95 bitrate=7702.3kbits/s speed=62.5x    frame=560022 fps=3717 q=-1.0 size= 8854528kB time=02:36:51.61 bitrate=7707.1kbits/s speed=62.5x    frame=561633 fps=3715 q=-1.0 size= 8885760kB time=02:37:18.47 bitrate=7712.3kbits/s speed=62.4x    frame=563272 fps=3714 q=-1.0 size= 8915968kB time=02:37:45.77 bitrate=7716.2kbits/s speed=62.4x    frame=565739 fps=3718 q=-1.0 size= 8947968kB time=02:38:26.88 bitrate=7710.4kbits/s speed=62.5x    frame=568260 fps=3722 q=-1.0 size= 8978432kB time=02:39:08.87 bitrate=7702.6kbits/s speed=62.5x    frame=570070 fps=3722 q=-1.0 size= 9008640kB time=02:39:38.99 bitrate=7704.2kbits/s speed=62.5x    frame=572261 fps=3724 q=-1.0 size= 9041920kB time=02:40:15.51 bitrate=7703.3kbits/s speed=62.6x    frame=574020 fps=3723 q=-1.0 size= 9074176kB time=02:40:44.78 bitrate=7707.3kbits/s speed=62.6x    frame=575844 fps=3723 q=-1.0 size= 9102848kB time=02:41:15.17 bitrate=7707.4kbits/s speed=62.6x    frame=577843 fps=3724 q=-1.0 size= 9134592kB time=02:41:48.49 bitrate=7707.7kbits/s speed=62.6x    frame=579865 fps=3725 q=-1.0 size= 9166336kB time=02:42:22.18 bitrate=7707.8kbits/s speed=62.6x    frame=581579 fps=3724 q=-1.0 size= 9194496kB time=02:42:50.73 bitrate=7708.9kbits/s speed=62.6x    frame=583572 fps=3725 q=-1.0 size= 9225728kB time=02:43:23.93 bitrate=7708.9kbits/s speed=62.6x    frame=586107 fps=3729 q=-1.0 size= 9255168kB time=02:44:06.16 bitrate=7700.3kbits/s speed=62.6x    frame=587963 fps=3729 q=-1.0 size= 9285888kB time=02:44:37.06 bitrate=7701.7kbits/s speed=62.6x    frame=589937 fps=3730 q=-1.0 size= 9319168kB time=02:45:09.92 bitrate=7703.7kbits/s speed=62.7x    frame=592306 fps=3733 q=-1.0 size= 9350144kB time=02:45:49.41 bitrate=7698.6kbits/s speed=62.7x    frame=593989 fps=3732 q=-1.0 size= 9381376kB time=02:46:17.44 bitrate=7702.6kbits/s speed=62.7x    frame=595597 fps=3730 q=-1.0 size= 9414400kB time=02:46:44.25 bitrate=7709.0kbits/s speed=62.7x    frame=597161 fps=3728 q=-1.0 size= 9446656kB time=02:47:10.30 bitrate=7715.3kbits/s speed=62.6x    frame=598799 fps=3727 q=-1.0 size= 9480448kB time=02:47:37.59 bitrate=7721.9kbits/s speed=62.6x    frame=600449 fps=3725 q=-1.0 size= 9514496kB time=02:48:05.08 bitrate=7728.5kbits/s speed=62.6x    frame=601917 fps=3723 q=-1.0 size= 9544960kB time=02:48:29.54 bitrate=7734.5kbits/s speed=62.5x    frame=603604 fps=3722 q=-1.0 size= 9576704kB time=02:48:57.64 bitrate=7738.7kbits/s speed=62.5x    frame=605161 fps=3720 q=-1.0 size= 9609216kB time=02:49:23.55 bitrate=7745.2kbits/s speed=62.5x    frame=606854 fps=3719 q=-1.0 size= 9642752kB time=02:49:51.76 bitrate=7750.7kbits/s speed=62.5x    frame=608498 fps=3718 q=-1.0 size= 9676544kB time=02:50:19.13 bitrate=7757.0kbits/s speed=62.4x    frame=610065 fps=3716 q=-1.0 size= 9708544kB time=02:50:45.21 bitrate=7762.9kbits/s speed=62.4x    frame=611558 fps=3714 q=-1.0 size= 9739520kB time=02:51:10.12 bitrate=7768.8kbits/s speed=62.4x    frame=613563 fps=3714 q=-1.0 size= 9768960kB time=02:51:43.48 bitrate=7767.0kbits/s speed=62.4x    frame=615155 fps=3713 q=-1.0 size= 9800960kB time=02:52:10.02 bitrate=7772.4kbits/s speed=62.3x    frame=616680 fps=3711 q=-1.0 size= 9832704kB time=02:52:35.40 bitrate=7778.5kbits/s speed=62.3x    frame=618731 fps=3712 q=-1.0 size= 9865984kB time=02:53:09.56 bitrate=7779.2kbits/s speed=62.3x    frame=620529 fps=3712 q=-1.0 size= 9897472kB time=02:53:39.48 bitrate=7781.6kbits/s speed=62.3x    frame=621942 fps=3709 q=-1.0 size= 9925888kB time=02:54:03.01 bitrate=7786.3kbits/s speed=62.3x    frame=623680 fps=3708 q=-1.0 size= 9957888kB time=02:54:31.97 bitrate=7789.8kbits/s speed=62.3x    frame=625512 fps=3708 q=-1.0 size= 9991168kB time=02:55:02.48 bitrate=7793.2kbits/s speed=62.3x    frame=627142 fps=3707 q=-1.0 size=10022912kB time=02:55:29.67 bitrate=7797.7kbits/s speed=62.2x    frame=628770 fps=3705 q=-1.0 size=10056448kB time=02:55:56.80 bitrate=7803.7kbits/s speed=62.2x    frame=630982 fps=3708 q=-1.0 size=10088448kB time=02:56:33.65 bitrate=7801.3kbits/s speed=62.2x    frame=632731 fps=3707 q=-1.0 size=10117376kB time=02:57:02.78 bitrate=7802.2kbits/s speed=62.2x    frame=634591 fps=3707 q=-1.0 size=10149120kB time=02:57:33.75 bitrate=7804.0kbits/s speed=62.2x    frame=636507 fps=3707 q=-1.0 size=10181376kB time=02:58:05.68 bitrate=7805.4kbits/s speed=62.2x    frame=637897 fps=3705 q=-1.0 size=10210560kB time=02:58:28.81 bitrate=7810.8kbits/s speed=62.2x    frame=639755 fps=3705 q=-1.0 size=10242048kB time=02:58:59.80 bitrate=7812.3kbits/s speed=62.2x    frame=641688 fps=3705 q=-1.0 size=10272768kB time=02:59:31.98 bitrate=7812.3kbits/s speed=62.2x    frame=643272 fps=3704 q=-1.0 size=10304256kB time=02:59:58.36 bitrate=7817.2kbits/s speed=62.2x    frame=644791 fps=3702 q=-1.0 size=10336000kB time=03:00:23.66 bitrate=7822.9kbits/s speed=62.1x    frame=646251 fps=3699 q=-1.0 size=10366208kB time=03:00:48.02 bitrate=7828.2kbits/s speed=62.1x    frame=648759 fps=3703 q=-1.0 size=10396672kB time=03:01:29.77 bitrate=7821.1kbits/s speed=62.2x    frame=650908 fps=3705 q=-1.0 size=10427904kB time=03:02:05.58 bitrate=7818.8kbits/s speed=62.2x    frame=652540 fps=3704 q=-1.0 size=10459648kB time=03:02:32.75 bitrate=7823.2kbits/s speed=62.2x    frame=654638 fps=3705 q=-1.0 size=10489600kB time=03:03:07.70 bitrate=7820.6kbits/s speed=62.2x    frame=656529 fps=3705 q=-1.0 size=10519296kB time=03:03:39.22 bitrate=7820.3kbits/s speed=62.2x    frame=658573 fps=3706 q=-1.0 size=10548224kB time=03:04:13.25 bitrate=7817.7kbits/s speed=62.2x    frame=660421 fps=3706 q=-1.0 size=10576896kB time=03:04:44.04 bitrate=7817.2kbits/s speed=62.2x    frame=662047 fps=3705 q=-1.0 size=10604800kB time=03:05:11.14 bitrate=7818.7kbits/s speed=62.2x    frame=663725 fps=3704 q=-1.0 size=10636288kB time=03:05:39.08 bitrate=7822.2kbits/s speed=62.2x    frame=666336 fps=3708 q=-1.0 size=10667008kB time=03:06:22.57 bitrate=7814.3kbits/s speed=62.2x    frame=667992 fps=3707 q=-1.0 size=10695168kB time=03:06:50.17 bitrate=7815.7kbits/s speed=62.2x    frame=670651 fps=3711 q=-1.0 size=10725376kB time=03:07:34.45 bitrate=7806.9kbits/s speed=62.3x    frame=672313 fps=3710 q=-1.0 size=10755584kB time=03:08:02.15 bitrate=7809.7kbits/s speed=62.3x    frame=673953 fps=3709 q=-1.0 size=10787840kB time=03:08:29.45 bitrate=7814.2kbits/s speed=62.2x    frame=675928 fps=3710 q=-1.0 size=10821376kB time=03:09:02.37 bitrate=7815.7kbits/s speed=62.3x    frame=677335 fps=3707 q=-1.0 size=10849536kB time=03:09:25.78 bitrate=7819.9kbits/s speed=62.2x    frame=679769 fps=3711 q=-1.0 size=10880000kB time=03:10:06.37 bitrate=7814.0kbits/s speed=62.3x    frame=681384 fps=3709 q=-1.0 size=10911488kB time=03:10:33.22 bitrate=7818.2kbits/s speed=62.2x    frame=682894 fps=3707 q=-1.0 size=10942720kB time=03:10:58.41 bitrate=7823.3kbits/s speed=62.2x    frame=685083 fps=3709 q=-1.0 size=10972416kB time=03:11:34.84 bitrate=7819.7kbits/s speed=62.2x    frame=688562 fps=3718 q=-1.0 size=11000832kB time=03:12:32.80 bitrate=7800.6kbits/s speed=62.4x    frame=691256 fps=3722 q=-1.0 size=11031552kB time=03:13:17.69 bitrate=7792.1kbits/s speed=62.5x    frame=693459 fps=3724 q=-1.0 size=11059456kB time=03:13:54.38 bitrate=7787.2kbits/s speed=62.5x    frame=695106 fps=3723 q=-1.0 size=11088384kB time=03:14:21.81 bitrate=7789.2kbits/s speed=62.5x    frame=696883 fps=3723 q=-1.0 size=11117568kB time=03:14:51.40 bitrate=7789.9kbits/s speed=62.5x    frame=699300 fps=3726 q=-1.0 size=11148544kB time=03:15:31.65 bitrate=7784.8kbits/s speed=62.5x    frame=700920 fps=3724 q=-1.0 size=11179264kB time=03:15:58.64 bitrate=7788.4kbits/s speed=62.5x    frame=702904 fps=3725 q=-1.0 size=11208704kB time=03:16:31.69 bitrate=7787.0kbits/s speed=62.5x    frame=704633 fps=3724 q=-1.0 size=11240960kB time=03:17:00.50 bitrate=7790.4kbits/s speed=62.5x    frame=706122 fps=3722 q=-1.0 size=11268608kB time=03:17:25.30 bitrate=7793.2kbits/s speed=62.4x    frame=707725 fps=3721 q=-1.0 size=11297280kB time=03:17:51.98 bitrate=7795.4kbits/s speed=62.4x    frame=709359 fps=3720 q=-1.0 size=11330048kB time=03:18:19.23 bitrate=7800.1kbits/s speed=62.4x    frame=710871 fps=3718 q=-1.0 size=11358720kB time=03:18:44.43 bitrate=7803.4kbits/s speed=62.4x    frame=713167 fps=3720 q=-1.0 size=11388672kB time=03:19:22.68 bitrate=7798.9kbits/s speed=62.4x    frame=715455 fps=3722 q=-1.0 size=11419136kB time=03:20:00.77 bitrate=7795.0kbits/s speed=62.4x    frame=717887 fps=3725 q=-1.0 size=11451136kB time=03:20:41.29 bitrate=7790.5kbits/s speed=62.5x    frame=721194 fps=3733 q=-1.0 size=11483648kB time=03:21:36.38 bitrate=7777.0kbits/s speed=62.6x    frame=723677 fps=3736 q=-1.0 size=11511808kB time=03:22:17.72 bitrate=7769.6kbits/s speed=62.7x    frame=726102 fps=3739 q=-1.0 size=11542784kB time=03:22:58.09 bitrate=7764.6kbits/s speed=62.7x    frame=728187 fps=3740 q=-1.0 size=11572736kB time=03:23:32.82 bitrate=7762.6kbits/s speed=62.7x    frame=730162 fps=3740 q=-1.0 size=11602944kB time=03:24:05.76 bitrate=7762.0kbits/s speed=62.7x    frame=731689 fps=3738 q=-1.0 size=11634432kB time=03:24:31.20 bitrate=7766.9kbits/s speed=62.7x    frame=733426 fps=3738 q=-1.0 size=11664896kB time=03:25:00.13 bitrate=7768.9kbits/s speed=62.7x    frame=735010 fps=3736 q=-1.0 size=11695872kB time=03:25:26.56 bitrate=7772.9kbits/s speed=62.7x    frame=736674 fps=3735 q=-1.0 size=11727872kB time=03:25:54.27 bitrate=7776.6kbits/s speed=62.6x    frame=739589 fps=3741 q=-1.0 size=11756032kB time=03:26:42.83 bitrate=7764.8kbits/s speed=62.7x    frame=742530 fps=3746 q=-1.0 size=11784704kB time=03:27:31.82 bitrate=7753.1kbits/s speed=62.8x    frame=745436 fps=3751 q=-1.0 size=11814912kB time=03:28:20.23 bitrate=7742.9kbits/s speed=62.9x    frame=747569 fps=3752 q=-1.0 size=11842304kB time=03:28:55.74 bitrate=7738.8kbits/s speed=62.9x    frame=749224 fps=3751 q=-1.0 size=11871488kB time=03:29:23.32 bitrate=7740.9kbits/s speed=62.9x    frame=751913 fps=3755 q=-1.0 size=11901952kB time=03:30:08.11 bitrate=7733.2kbits/s speed=  63x    frame=753318 fps=3753 q=-1.0 size=11929600kB time=03:30:31.50 bitrate=7736.8kbits/s speed=62.9x    frame=754845 fps=3751 q=-1.0 size=11960064kB time=03:30:56.94 bitrate=7741.0kbits/s speed=62.9x    frame=756641 fps=3751 q=-1.0 size=11990272kB time=03:31:26.85 bitrate=7742.2kbits/s speed=62.9x    frame=759100 fps=3754 q=-1.0 size=12017920kB time=03:32:07.82 bitrate=7735.1kbits/s speed=62.9x    frame=762271 fps=3760 q=-1.0 size=12047104kB time=03:33:00.62 bitrate=7721.8kbits/s speed=  63x    frame=764041 fps=3759 q=-1.0 size=12078336kB time=03:33:30.14 bitrate=7724.0kbits/s speed=  63x    frame=765605 fps=3758 q=-1.0 size=12107520kB time=03:33:56.19 bitrate=7727.0kbits/s speed=  63x    frame=767744 fps=3759 q=-1.0 size=12137728kB time=03:34:31.80 bitrate=7724.8kbits/s speed=  63x    frame=769540 fps=3759 q=-1.0 size=12170240kB time=03:35:01.74 bitrate=7727.5kbits/s speed=  63x    frame=771127 fps=3757 q=-1.0 size=12200192kB time=03:35:28.19 bitrate=7730.7kbits/s speed=  63x    frame=772851 fps=3757 q=-1.0 size=12233472kB time=03:35:56.90 bitrate=7734.6kbits/s speed=  63x    frame=775014 fps=3758 q=-1.0 size=12264192kB time=03:36:32.93 bitrate=7732.5kbits/s speed=  63x    frame=776635 fps=3757 q=-1.0 size=12294400kB time=03:36:59.90 bitrate=7735.5kbits/s speed=  63x    frame=778280 fps=3756 q=-1.0 size=12324096kB time=03:37:27.30 bitrate=7737.9kbits/s speed=  63x    frame=780255 fps=3756 q=-1.0 size=12352768kB time=03:38:00.21 bitrate=7736.4kbits/s speed=  63x    frame=782103 fps=3756 q=-1.0 size=12386048kB time=03:38:31.00 bitrate=7739.0kbits/s speed=  63x    frame=783995 fps=3756 q=-1.0 size=12418048kB time=03:39:02.52 bitrate=7740.4kbits/s speed=  63x    frame=785806 fps=3756 q=-1.0 size=12447488kB time=03:39:32.68 bitrate=7741.0kbits/s speed=  63x    frame=787543 fps=3755 q=-1.0 size=12477952kB time=03:40:01.63 bitrate=7742.9kbits/s speed=62.9x    frame=789307 fps=3754 q=-1.0 size=12509184kB time=03:40:31.00 bitrate=7745.1kbits/s speed=62.9x    frame=792057 fps=3758 q=-1.0 size=12539136kB time=03:41:16.84 bitrate=7736.8kbits/s speed=  63x    frame=793815 fps=3758 q=-1.0 size=12570112kB time=03:41:46.13 bitrate=7738.9kbits/s speed=  63x    frame=795531 fps=3757 q=-1.0 size=12600320kB time=03:42:14.72 bitrate=7740.8kbits/s speed=  63x    frame=797107 fps=3756 q=-1.0 size=12629248kB time=03:42:40.96 bitrate=7743.4kbits/s speed=  63x    frame=799101 fps=3756 q=-1.0 size=12661760kB time=03:43:14.19 bitrate=7744.0kbits/s speed=  63x    frame=801133 fps=3757 q=-1.0 size=12692736kB time=03:43:48.02 bitrate=7743.4kbits/s speed=  63x    frame=803117 fps=3757 q=-1.0 size=12724224kB time=03:44:21.09 bitrate=7743.6kbits/s speed=  63x    frame=804939 fps=3757 q=-1.0 size=12755712kB time=03:44:51.44 bitrate=7745.3kbits/s speed=  63x    frame=806789 fps=3757 q=-1.0 size=12787968kB time=03:45:22.28 bitrate=7747.1kbits/s speed=  63x    frame=808877 fps=3758 q=-1.0 size=12819712kB time=03:45:57.04 bitrate=7746.5kbits/s speed=  63x    frame=810955 fps=3759 q=-1.0 size=12850944kB time=03:46:31.70 bitrate=7745.5kbits/s speed=  63x    frame=812546 fps=3757 q=-1.0 size=12881664kB time=03:46:58.20 bitrate=7748.9kbits/s speed=  63x    frame=814233 fps=3757 q=-1.0 size=12913664kB time=03:47:26.31 bitrate=7752.2kbits/s speed=  63x    frame=815880 fps=3756 q=-1.0 size=12944896kB time=03:47:53.70 bitrate=7755.4kbits/s speed=62.9x    frame=817459 fps=3754 q=-1.0 size=12975104kB time=03:48:20.00 bitrate=7758.5kbits/s speed=62.9x    frame=819135 fps=3753 q=-1.0 size=13006336kB time=03:48:47.95 bitrate=7761.4kbits/s speed=62.9x    frame=820636 fps=3751 q=-1.0 size=13035520kB time=03:49:12.96 bitrate=7764.6kbits/s speed=62.9x    frame=822153 fps=3750 q=-1.0 size=13065984kB time=03:49:38.22 bitrate=7768.5kbits/s speed=62.8x    frame=823807 fps=3749 q=-1.0 size=13096960kB time=03:50:05.79 bitrate=7771.4kbits/s speed=62.8x    frame=825390 fps=3747 q=-1.0 size=13126144kB time=03:50:32.18 bitrate=7773.9kbits/s speed=62.8x    frame=828024 fps=3751 q=-1.0 size=13156352kB time=03:51:16.05 bitrate=7767.1kbits/s speed=62.9x    frame=830161 fps=3752 q=-1.0 size=13188096kB time=03:51:51.63 bitrate=7765.9kbits/s speed=62.9x    frame=832238 fps=3753 q=-1.0 size=13217536kB time=03:52:26.22 bitrate=7764.0kbits/s speed=62.9x    frame=833669 fps=3751 q=-1.0 size=13246976kB time=03:52:50.05 bitrate=7768.0kbits/s speed=62.9x    frame=835437 fps=3751 q=-1.0 size=13275904kB time=03:53:19.52 bitrate=7768.6kbits/s speed=62.8x    frame=836792 fps=3748 q=-1.0 size=13303552kB time=03:53:42.09 bitrate=7772.2kbits/s speed=62.8x    frame=838318 fps=3747 q=-1.0 size=13333248kB time=03:54:07.51 bitrate=7775.5kbits/s speed=62.8x    frame=840619 fps=3749 q=-1.0 size=13362688kB time=03:54:45.86 bitrate=7771.4kbits/s speed=62.8x    frame=841977 fps=3746 q=-1.0 size=13391104kB time=03:55:08.48 bitrate=7775.5kbits/s speed=62.8x    frame=843583 fps=3745 q=-1.0 size=13422848kB time=03:55:35.21 bitrate=7779.2kbits/s speed=62.8x    frame=846729 fps=3751 q=-1.0 size=13451776kB time=03:56:27.59 bitrate=7767.1kbits/s speed=62.8x    frame=848247 fps=3749 q=-1.0 size=13479424kB time=03:56:52.88 bitrate=7769.3kbits/s speed=62.8x    frame=850509 fps=3751 q=-1.0 size=13512448kB time=03:57:30.54 bitrate=7767.7kbits/s speed=62.8x    frame=852101 fps=3749 q=-1.0 size=13543680kB time=03:57:57.08 bitrate=7771.2kbits/s speed=62.8x    frame=853654 fps=3748 q=-1.0 size=13573888kB time=03:58:22.94 bitrate=7774.4kbits/s speed=62.8x    frame=855091 fps=3746 q=-1.0 size=13599744kB time=03:58:46.90 bitrate=7776.2kbits/s speed=62.8x    frame=856879 fps=3746 q=-1.0 size=13628160kB time=03:59:16.70 bitrate=7776.3kbits/s speed=62.8x    frame=858553 fps=3745 q=-1.0 size=13660160kB time=03:59:44.58 bitrate=7779.4kbits/s speed=62.7x    frame=860064 fps=3743 q=-1.0 size=13690624kB time=04:00:09.75 bitrate=7783.2kbits/s speed=62.7x    frame=861812 fps=3743 q=-1.0 size=13720576kB time=04:00:38.88 bitrate=7784.5kbits/s speed=62.7x    frame=863310 fps=3741 q=-1.0 size=13750528kB time=04:01:03.83 bitrate=7788.0kbits/s speed=62.7x    frame=864827 fps=3740 q=-1.0 size=13780992kB time=04:01:29.09 bitrate=7791.6kbits/s speed=62.7x    frame=866529 fps=3739 q=-1.0 size=13813760kB time=04:01:57.46 bitrate=7794.9kbits/s speed=62.6x    frame=868301 fps=3738 q=-1.0 size=13846528kB time=04:02:26.97 bitrate=7797.5kbits/s speed=62.6x    frame=869944 fps=3737 q=-1.0 size=13878272kB time=04:02:54.34 bitrate=7800.7kbits/s speed=62.6x    frame=871833 fps=3737 q=-1.0 size=13909760kB time=04:03:25.82 bitrate=7801.6kbits/s speed=62.6x    frame=873853 fps=3738 q=-1.0 size=13939456kB time=04:03:59.45 bitrate=7800.3kbits/s speed=62.6x    frame=875296 fps=3736 q=-1.0 size=13967104kB time=04:04:23.49 bitrate=7803.0kbits/s speed=62.6x    frame=877067 fps=3736 q=-1.0 size=13999616kB time=04:04:52.99 bitrate=7805.4kbits/s speed=62.6x    frame=878683 fps=3735 q=-1.0 size=14031104kB time=04:05:19.88 bitrate=7808.7kbits/s speed=62.6x    frame=880124 fps=3733 q=-1.0 size=14060288kB time=04:05:43.92 bitrate=7812.2kbits/s speed=62.5x    frame=881751 fps=3732 q=-1.0 size=14092032kB time=04:06:11.02 bitrate=7815.4kbits/s speed=62.5x    frame=883351 fps=3731 q=-1.0 size=14121472kB time=04:06:37.66 bitrate=7817.7kbits/s speed=62.5x    frame=884923 fps=3730 q=-1.0 size=14151424kB time=04:07:03.80 bitrate=7820.4kbits/s speed=62.5x    frame=886445 fps=3728 q=-1.0 size=14181888kB time=04:07:29.15 bitrate=7823.9kbits/s speed=62.5x    frame=887862 fps=3726 q=-1.0 size=14210304kB time=04:07:52.76 bitrate=7827.1kbits/s speed=62.4x    frame=889440 fps=3725 q=-1.0 size=14240768kB time=04:08:19.07 bitrate=7830.0kbits/s speed=62.4x    frame=891155 fps=3724 q=-1.0 size=14269696kB time=04:08:47.62 bitrate=7830.9kbits/s speed=62.4x    frame=892537 fps=3722 q=-1.0 size=14298112kB time=04:09:10.65 bitrate=7834.4kbits/s speed=62.4x    frame=894102 fps=3721 q=-1.0 size=14328576kB time=04:09:36.70 bitrate=7837.5kbits/s speed=62.3x    frame=895624 fps=3720 q=-1.0 size=14359296kB time=04:10:02.05 bitrate=7841.0kbits/s speed=62.3x    frame=897729 fps=3721 q=-1.0 size=14387712kB time=04:10:37.13 bitrate=7838.2kbits/s speed=62.3x    frame=899158 fps=3719 q=-1.0 size=14417152kB time=04:11:00.92 bitrate=7841.8kbits/s speed=62.3x    frame=900717 fps=3718 q=-1.0 size=14447360kB time=04:11:26.89 bitrate=7844.7kbits/s speed=62.3x    frame=902131 fps=3716 q=-1.0 size=14476032kB time=04:11:50.46 bitrate=7848.0kbits/s speed=62.2x    frame=904019 fps=3716 q=-1.0 size=14506496kB time=04:12:21.92 bitrate=7848.2kbits/s speed=62.2x    frame=905883 fps=3716 q=-1.0 size=14535680kB time=04:12:52.94 bitrate=7847.9kbits/s speed=62.2x    frame=907785 fps=3716 q=-1.0 size=14563328kB time=04:13:24.64 bitrate=7846.5kbits/s speed=62.2x    frame=909349 fps=3715 q=-1.0 size=14593024kB time=04:13:50.68 bitrate=7849.0kbits/s speed=62.2x    frame=910957 fps=3714 q=-1.0 size=14625024kB time=04:14:17.48 bitrate=7852.4kbits/s speed=62.2x    frame=913166 fps=3715 q=-1.0 size=14651904kB time=04:14:54.27 bitrate=7847.9kbits/s speed=62.2x    frame=915017 fps=3715 q=-1.0 size=14681600kB time=04:15:25.10 bitrate=7848.0kbits/s speed=62.2x    frame=916601 fps=3714 q=-1.0 size=14710272kB time=04:15:51.50 bitrate=7849.8kbits/s speed=62.2x    frame=919133 fps=3717 q=-1.0 size=14738688kB time=04:16:33.69 bitrate=7843.4kbits/s speed=62.3x    frame=921156 fps=3718 q=-1.0 size=14770432kB time=04:17:07.37 bitrate=7843.2kbits/s speed=62.3x    frame=923089 fps=3718 q=-1.0 size=14802944kB time=04:17:39.57 bitrate=7844.1kbits/s speed=62.3x    frame=925621 fps=3721 q=-1.0 size=14833920kB time=04:18:21.77 bitrate=7839.1kbits/s speed=62.3x    frame=928200 fps=3723 q=-1.0 size=14864896kB time=04:19:04.71 bitrate=7833.7kbits/s speed=62.4x    frame=929632 fps=3722 q=-1.0 size=14894592kB time=04:19:28.59 bitrate=7837.3kbits/s speed=62.3x    frame=931738 fps=3723 q=-1.0 size=14926336kB time=04:20:03.67 bitrate=7836.4kbits/s speed=62.3x    frame=935933 fps=3732 q=-1.0 size=14953728kB time=04:21:13.56 bitrate=7815.8kbits/s speed=62.5x    frame=939572 fps=3739 q=-1.0 size=14983936kB time=04:22:14.17 bitrate=7801.4kbits/s speed=62.6x    frame=941224 fps=3738 q=-1.0 size=15016192kB time=04:22:41.67 bitrate=7804.5kbits/s speed=62.6x    frame=942626 fps=3736 q=-1.0 size=15045632kB time=04:23:05.05 bitrate=7808.3kbits/s speed=62.6x    frame=944219 fps=3735 q=-1.0 size=15076864kB time=04:23:31.57 bitrate=7811.3kbits/s speed=62.5x    frame=945709 fps=3734 q=-1.0 size=15107840kB time=04:23:56.37 bitrate=7815.1kbits/s speed=62.5x    frame=947091 fps=3732 q=-1.0 size=15136512kB time=04:24:19.42 bitrate=7818.6kbits/s speed=62.5x    frame=948604 fps=3730 q=-1.0 size=15168000kB time=04:24:44.62 bitrate=7822.4kbits/s speed=62.5x    frame=950035 fps=3729 q=-1.0 size=15197440kB time=04:25:08.47 bitrate=7825.9kbits/s speed=62.4x    frame=951595 fps=3728 q=-1.0 size=15229952kB time=04:25:34.44 bitrate=7829.8kbits/s speed=62.4x    frame=953047 fps=3726 q=-1.0 size=15259904kB time=04:25:58.62 bitrate=7833.3kbits/s speed=62.4x    frame=954705 fps=3725 q=-1.0 size=15290368kB time=04:26:26.21 bitrate=7835.4kbits/s speed=62.4x    frame=956374 fps=3724 q=-1.0 size=15319552kB time=04:26:54.00 bitrate=7836.8kbits/s speed=62.4x    frame=957887 fps=3723 q=-1.0 size=15350784kB time=04:27:19.20 bitrate=7840.4kbits/s speed=62.3x    frame=959272 fps=3721 q=-1.0 size=15379712kB time=04:27:42.28 bitrate=7843.9kbits/s speed=62.3x    frame=960767 fps=3720 q=-1.0 size=15410432kB time=04:28:07.17 bitrate=7847.4kbits/s speed=62.3x    frame=962359 fps=3719 q=-1.0 size=15443712kB time=04:28:33.69 bitrate=7851.4kbits/s speed=62.3x    frame=963798 fps=3717 q=-1.0 size=15473664kB time=04:28:57.63 bitrate=7854.9kbits/s speed=62.2x    frame=965243 fps=3715 q=-1.0 size=15503872kB time=04:29:21.72 bitrate=7858.6kbits/s speed=62.2x    frame=966807 fps=3714 q=-1.0 size=15535872kB time=04:29:47.72 bitrate=7862.1kbits/s speed=62.2x    frame=968119 fps=3712 q=-1.0 size=15563264kB time=04:30:09.56 bitrate=7865.4kbits/s speed=62.2x    frame=969951 fps=3712 q=-1.0 size=15596800kB time=04:30:40.05 bitrate=7867.5kbits/s speed=62.2x    frame=971493 fps=3711 q=-1.0 size=15628800kB time=04:31:05.74 bitrate=7871.2kbits/s speed=62.1x    frame=973724 fps=3712 q=-1.0 size=15663104kB time=04:31:42.88 bitrate=7870.5kbits/s speed=62.2x    frame=975979 fps=3714 q=-1.0 size=15696128kB time=04:32:20.47 bitrate=7869.0kbits/s speed=62.2x    frame=978267 fps=3716 q=-1.0 size=15725824kB time=04:32:58.53 bitrate=7865.5kbits/s speed=62.2x    frame=980665 fps=3718 q=-1.0 size=15757824kB time=04:33:38.52 bitrate=7862.3kbits/s speed=62.2x    frame=982987 fps=3719 q=-1.0 size=15791104kB time=04:34:17.19 bitrate=7860.4kbits/s speed=62.3x    frame=984440 fps=3718 q=-1.0 size=15821312kB time=04:34:41.38 bitrate=7863.9kbits/s speed=62.2x    frame=986025 fps=3717 q=-1.0 size=15854336kB time=04:35:07.76 bitrate=7867.7kbits/s speed=62.2x    frame=987517 fps=3715 q=-1.0 size=15885056kB time=04:35:32.60 bitrate=7871.1kbits/s speed=62.2x    frame=989111 fps=3714 q=-1.0 size=15918336kB time=04:35:59.11 bitrate=7875.0kbits/s speed=62.2x    frame=990611 fps=3713 q=-1.0 size=15949568kB time=04:36:24.11 bitrate=7878.6kbits/s speed=62.2x    frame=992299 fps=3712 q=-1.0 size=15983872kB time=04:36:52.20 bitrate=7882.1kbits/s speed=62.1x    frame=993937 fps=3712 q=-1.0 size=16017920kB time=04:37:19.46 bitrate=7886.0kbits/s speed=62.1x    frame=995342 fps=3710 q=-1.0 size=16047104kB time=04:37:42.84 bitrate=7889.3kbits/s speed=62.1x    frame=997030 fps=3709 q=-1.0 size=16082176kB time=04:38:10.98 bitrate=7893.2kbits/s speed=62.1x    frame=998525 fps=3708 q=-1.0 size=16112896kB time=04:38:35.89 bitrate=7896.5kbits/s speed=62.1x    frame=1000225 fps=3707 q=-1.0 size=16145920kB time=04:39:04.20 bitrate=7899.3kbits/s speed=62.1x    frame=1002847 fps=3710 q=-1.0 size=16178944kB time=04:39:47.84 bitrate=7894.9kbits/s speed=62.1x    frame=1005057 fps=3711 q=-1.0 size=16207616kB time=04:40:24.68 bitrate=7891.5kbits/s speed=62.1x    frame=1007191 fps=3712 q=-1.0 size=16240640kB time=04:41:00.23 bitrate=7891.0kbits/s speed=62.1x    frame=1008825 fps=3712 q=-1.0 size=16274176kB time=04:41:27.44 bitrate=7894.5kbits/s speed=62.1x    frame=1010283 fps=3710 q=-1.0 size=16304384kB time=04:41:51.73 bitrate=7897.8kbits/s speed=62.1x    frame=1011926 fps=3709 q=-1.0 size=16338688kB time=04:42:19.08 bitrate=7901.6kbits/s speed=62.1x    frame=1013450 fps=3708 q=-1.0 size=16370176kB time=04:42:44.46 bitrate=7905.0kbits/s speed=62.1x    frame=1014961 fps=3707 q=-1.0 size=16401664kB time=04:43:09.62 bitrate=7908.5kbits/s speed=62.1x    frame=1016605 fps=3706 q=-1.0 size=16435968kB time=04:43:36.99 bitrate=7912.3kbits/s speed=  62x    frame=1018196 fps=3705 q=-1.0 size=16468992kB time=04:44:03.47 bitrate=7915.9kbits/s speed=  62x    frame=1019855 fps=3704 q=-1.0 size=16503552kB time=04:44:31.10 bitrate=7919.6kbits/s speed=  62x    frame=1022296 fps=3707 q=-1.0 size=16534272kB time=04:45:11.75 bitrate=7915.5kbits/s speed=  62x    frame=1024662 fps=3708 q=-1.0 size=16563200kB time=04:45:51.15 bitrate=7911.2kbits/s speed=62.1x    frame=1027155 fps=3711 q=-1.0 size=16595712kB time=04:46:32.70 bitrate=7907.5kbits/s speed=62.1x    frame=1028864 fps=3710 q=-1.0 size=16626432kB time=04:47:01.17 bitrate=7909.1kbits/s speed=62.1x    frame=1030361 fps=3709 q=-1.0 size=16657408kB time=04:47:26.11 bitrate=7912.4kbits/s speed=62.1x    frame=1031977 fps=3708 q=-1.0 size=16691200kB time=04:47:53.02 bitrate=7916.1kbits/s speed=62.1x    frame=1033428 fps=3706 q=-1.0 size=16721152kB time=04:48:17.18 bitrate=7919.2kbits/s speed=  62x    frame=1035035 fps=3706 q=-1.0 size=16754432kB time=04:48:43.94 bitrate=7922.7kbits/s speed=  62x    frame=1036640 fps=3705 q=-1.0 size=16787712kB time=04:49:10.65 bitrate=7926.2kbits/s speed=  62x    frame=1038076 fps=3703 q=-1.0 size=16817664kB time=04:49:34.54 bitrate=7929.4kbits/s speed=  62x    frame=1039741 fps=3702 q=-1.0 size=16851712kB time=04:50:02.30 bitrate=7932.8kbits/s speed=  62x    frame=1041198 fps=3701 q=-1.0 size=16881920kB time=04:50:26.56 bitrate=7936.0kbits/s speed=61.9x    frame=1043507 fps=3703 q=-1.0 size=16912896kB time=04:51:05.03 bitrate=7933.0kbits/s speed=  62x    frame=1046305 fps=3706 q=-1.0 size=16946432kB time=04:51:51.64 bitrate=7927.6kbits/s speed=  62x    frame=1048512 fps=3707 q=-1.0 size=16975872kB time=04:52:28.41 bitrate=7924.7kbits/s speed=  62x    frame=1050985 fps=3709 q=-1.0 size=17006592kB time=04:53:09.59 bitrate=7920.5kbits/s speed=62.1x    frame=1052603 fps=3709 q=-1.0 size=17039360kB time=04:53:36.50 bitrate=7923.6kbits/s speed=62.1x    frame=1053984 fps=3707 q=-1.0 size=17068288kB time=04:53:59.53 bitrate=7926.7kbits/s speed=  62x    frame=1055467 fps=3706 q=-1.0 size=17099264kB time=04:54:24.21 bitrate=7930.0kbits/s speed=  62x    frame=1057102 fps=3705 q=-1.0 size=17132800kB time=04:54:51.43 bitrate=7933.3kbits/s speed=  62x    frame=1058564 fps=3704 q=-1.0 size=17163264kB time=04:55:15.74 bitrate=7936.5kbits/s speed=  62x    frame=1060180 fps=3703 q=-1.0 size=17196800kB time=04:55:42.68 bitrate=7940.0kbits/s speed=  62x    frame=1061706 fps=3702 q=-1.0 size=17228288kB time=04:56:08.09 bitrate=7943.1kbits/s speed=61.9x    frame=1063249 fps=3700 q=-1.0 size=17260288kB time=04:56:33.77 bitrate=7946.4kbits/s speed=61.9x    frame=1064781 fps=3699 q=-1.0 size=17292288kB time=04:56:59.28 bitrate=7949.7kbits/s speed=61.9x    frame=1066225 fps=3698 q=-1.0 size=17322240kB time=04:57:23.30 bitrate=7952.8kbits/s speed=61.9x    frame=1067734 fps=3697 q=-1.0 size=17353728kB time=04:57:48.44 bitrate=7956.0kbits/s speed=61.9x    frame=1069308 fps=3696 q=-1.0 size=17386240kB time=04:58:14.67 bitrate=7959.2kbits/s speed=61.8x    frame=1071062 fps=3695 q=-1.0 size=17414656kB time=04:58:43.86 bitrate=7959.3kbits/s speed=61.8x    frame=1073494 fps=3697 q=-1.0 size=17446400kB time=04:59:24.38 bitrate=7955.8kbits/s speed=61.9x    frame=1075676 fps=3699 q=-1.0 size=17477632kB time=05:00:00.75 bitrate=7953.9kbits/s speed=61.9x    frame=1077113 fps=3697 q=-1.0 size=17507328kB time=05:00:24.69 bitrate=7956.9kbits/s speed=61.9x    frame=1078671 fps=3696 q=-1.0 size=17539840kB time=05:00:50.65 bitrate=7960.2kbits/s speed=61.9x    frame=1080159 fps=3695 q=-1.0 size=17570560kB time=05:01:15.40 bitrate=7963.2kbits/s speed=61.8x    frame=1081762 fps=3694 q=-1.0 size=17603840kB time=05:01:42.14 bitrate=7966.5kbits/s speed=61.8x    frame=1083291 fps=3693 q=-1.0 size=17635584kB time=05:02:07.56 bitrate=7969.7kbits/s speed=61.8x    frame=1084889 fps=3692 q=-1.0 size=17668352kB time=05:02:34.20 bitrate=7972.8kbits/s speed=61.8x    frame=1086461 fps=3691 q=-1.0 size=17700096kB time=05:03:00.37 bitrate=7975.6kbits/s speed=61.8x    frame=1087809 fps=3690 q=-1.0 size=17728512kB time=05:03:22.82 bitrate=7978.5kbits/s speed=61.7x    frame=1089448 fps=3689 q=-1.0 size=17761536kB time=05:03:50.06 bitrate=7981.5kbits/s speed=61.7x    frame=1091666 fps=3690 q=-1.0 size=17792768kB time=05:04:27.01 bitrate=7979.3kbits/s speed=61.7x    frame=1094198 fps=3692 q=-1.0 size=17825280kB time=05:05:09.16 bitrate=7975.5kbits/s speed=61.8x    frame=1096002 fps=3692 q=-1.0 size=17858048kB time=05:05:39.21 bitrate=7977.1kbits/s speed=61.8x    frame=1097425 fps=3691 q=-1.0 size=17887744kB time=05:06:02.88 bitrate=7980.0kbits/s speed=61.8x    frame=1098763 fps=3689 q=-1.0 size=17915136kB time=05:06:25.18 bitrate=7982.6kbits/s speed=61.7x    frame=1100271 fps=3688 q=-1.0 size=17946624kB time=05:06:50.29 bitrate=7985.7kbits/s speed=61.7x    frame=1101756 fps=3687 q=-1.0 size=17977600kB time=05:07:15.02 bitrate=7988.7kbits/s speed=61.7x    frame=1103300 fps=3686 q=-1.0 size=18009856kB time=05:07:40.70 bitrate=7991.9kbits/s speed=61.7x    frame=1104776 fps=3685 q=-1.0 size=18040320kB time=05:08:05.27 bitrate=7994.8kbits/s speed=61.7x    frame=1106601 fps=3684 q=-1.0 size=18078208kB time=05:08:35.64 bitrate=7998.5kbits/s speed=61.6x    frame=1108472 fps=3685 q=-1.0 size=18117120kB time=05:09:06.79 bitrate=8002.2kbits/s speed=61.6x    frame=1110100 fps=3684 q=-1.0 size=18150912kB time=05:09:33.90 bitrate=8005.4kbits/s speed=61.6x    frame=1111708 fps=3683 q=-1.0 size=18184192kB time=05:10:00.68 bitrate=8008.6kbits/s speed=61.6x    frame=1113189 fps=3682 q=-1.0 size=18215168kB time=05:10:25.30 bitrate=8011.6kbits/s speed=61.6x    frame=1114419 fps=3680 q=-1.0 size=18241024kB time=05:10:45.80 bitrate=8014.2kbits/s speed=61.6x    frame=1115795 fps=3678 q=-1.0 size=18269184kB time=05:11:08.70 bitrate=8016.7kbits/s speed=61.5x    frame=1117110 fps=3677 q=-1.0 size=18296576kB time=05:11:30.59 bitrate=8019.3kbits/s speed=61.5x    frame=1118401 fps=3675 q=-1.0 size=18323456kB time=05:11:52.09 bitrate=8021.9kbits/s speed=61.5x    frame=1119666 fps=3673 q=-1.0 size=18349568kB time=05:12:13.15 bitrate=8024.3kbits/s speed=61.5x    frame=1120994 fps=3671 q=-1.0 size=18377472kB time=05:12:35.28 bitrate=8027.0kbits/s speed=61.4x    frame=1122562 fps=3670 q=-1.0 size=18409984kB time=05:13:01.39 bitrate=8030.0kbits/s speed=61.4x    frame=1124082 fps=3669 q=-1.0 size=18441472kB time=05:13:26.70 bitrate=8032.9kbits/s speed=61.4x    frame=1125642 fps=3668 q=-1.0 size=18473984kB time=05:13:52.68 bitrate=8036.0kbits/s speed=61.4x    frame=1127156 fps=3667 q=-1.0 size=18505216kB time=05:14:17.88 bitrate=8038.8kbits/s speed=61.4x    frame=1128559 fps=3666 q=-1.0 size=18534656kB time=05:14:41.26 bitrate=8041.6kbits/s speed=61.3x    frame=1130111 fps=3665 q=-1.0 size=18566656kB time=05:15:07.08 bitrate=8044.5kbits/s speed=61.3x    frame=1131695 fps=3664 q=-1.0 size=18599680kB time=05:15:33.48 bitrate=8047.6kbits/s speed=61.3x    frame=1133126 fps=3663 q=-1.0 size=18629376kB time=05:15:57.31 bitrate=8050.3kbits/s speed=61.3x    frame=1134871 fps=3663 q=-1.0 size=18662400kB time=05:16:26.36 bitrate=8052.2kbits/s speed=61.3x    frame=1137073 fps=3664 q=-1.0 size=18691840kB time=05:17:03.02 bitrate=8049.4kbits/s speed=61.3x    frame=1139480 fps=3666 q=-1.0 size=18721792kB time=05:17:43.14 bitrate=8045.3kbits/s speed=61.3x    frame=1141152 fps=3665 q=-1.0 size=18755584kB time=05:18:10.99 bitrate=8048.1kbits/s speed=61.3x    frame=1142553 fps=3664 q=-1.0 size=18784768kB time=05:18:34.33 bitrate=8050.8kbits/s speed=61.3x    frame=1144055 fps=3663 q=-1.0 size=18816000kB time=05:18:59.32 bitrate=8053.6kbits/s speed=61.3x    frame=1145485 fps=3661 q=-1.0 size=18845696kB time=05:19:23.10 bitrate=8056.3kbits/s speed=61.3x    frame=1146849 fps=3660 q=-1.0 size=18873856kB time=05:19:45.84 bitrate=8058.8kbits/s speed=61.2x    frame=1148386 fps=3659 q=-1.0 size=18905600kB time=05:20:11.41 bitrate=8061.6kbits/s speed=61.2x    frame=1149841 fps=3658 q=-1.0 size=18936064kB time=05:20:35.64 bitrate=8064.4kbits/s speed=61.2x    frame=1151328 fps=3657 q=-1.0 size=18967040kB time=05:21:00.38 bitrate=8067.2kbits/s speed=61.2x    frame=1152765 fps=3655 q=-1.0 size=18996736kB time=05:21:24.35 bitrate=8069.8kbits/s speed=61.2x    frame=1154176 fps=3654 q=-1.0 size=19026176kB time=05:21:47.84 bitrate=8072.5kbits/s speed=61.1x    frame=1155711 fps=3653 q=-1.0 size=19057920kB time=05:22:13.37 bitrate=8075.3kbits/s speed=61.1x    frame=1158208 fps=3655 q=-1.0 size=19090176kB time=05:22:54.98 bitrate=8071.6kbits/s speed=61.1x    frame=1159936 fps=3655 q=-1.0 size=19119104kB time=05:23:23.78 bitrate=8071.8kbits/s speed=61.1x    frame=1161495 fps=3654 q=-1.0 size=19151616kB time=05:23:49.75 bitrate=8074.7kbits/s speed=61.1x    frame=1162998 fps=3653 q=-1.0 size=19182592kB time=05:24:14.75 bitrate=8077.4kbits/s speed=61.1x    frame=1164594 fps=3652 q=-1.0 size=19215616kB time=05:24:41.34 bitrate=8080.3kbits/s speed=61.1x    frame=1166222 fps=3652 q=-1.0 size=19249408kB time=05:25:08.44 bitrate=8083.2kbits/s speed=61.1x    frame=1167685 fps=3651 q=-1.0 size=19280384kB time=05:25:32.79 bitrate=8086.1kbits/s speed=61.1x    frame=1169262 fps=3650 q=-1.0 size=19312640kB time=05:25:59.02 bitrate=8088.8kbits/s speed=61.1x    frame=1170662 fps=3648 q=-1.0 size=19342080kB time=05:26:22.35 bitrate=8091.5kbits/s speed=  61x    frame=1172150 fps=3647 q=-1.0 size=19373056kB time=05:26:47.10 bitrate=8094.2kbits/s speed=  61x    frame=1173567 fps=3646 q=-1.0 size=19401984kB time=05:27:10.68 bitrate=8096.6kbits/s speed=  61x    frame=1175081 fps=3645 q=-1.0 size=19433472kB time=05:27:35.90 bitrate=8099.3kbits/s speed=  61x    frame=1176682 fps=3645 q=-1.0 size=19466752kB time=05:28:02.58 bitrate=8102.2kbits/s speed=  61x    frame=1178235 fps=3644 q=-1.0 size=19498752kB time=05:28:28.41 bitrate=8104.9kbits/s speed=60.9x    frame=1180238 fps=3644 q=-1.0 size=19526912kB time=05:29:01.76 bitrate=8102.8kbits/s speed=  61x    frame=1182647 fps=3646 q=-1.0 size=19557376kB time=05:29:41.89 bitrate=8099.0kbits/s speed=  61x    frame=1185001 fps=3648 q=-1.0 size=19588864kB time=05:30:21.08 bitrate=8096.0kbits/s speed=  61x    frame=1186564 fps=3647 q=-1.0 size=19621120kB time=05:30:47.13 bitrate=8098.7kbits/s speed=  61x    frame=1188191 fps=3646 q=-1.0 size=19655168kB time=05:31:14.20 bitrate=8101.7kbits/s speed=  61x    frame=1189655 fps=3645 q=-1.0 size=19685632kB time=05:31:38.60 bitrate=8104.3kbits/s speed=  61x    frame=1191278 fps=3644 q=-1.0 size=19719168kB time=05:32:05.63 bitrate=8107.1kbits/s speed=  61x    frame=1192827 fps=3644 q=-1.0 size=19751680kB time=05:32:31.39 bitrate=8110.0kbits/s speed=60.9x    frame=1194411 fps=3643 q=-1.0 size=19784448kB time=05:32:57.78 bitrate=8112.7kbits/s speed=60.9x    frame=1195964 fps=3642 q=-1.0 size=19816448kB time=05:33:23.63 bitrate=8115.3kbits/s speed=60.9x    frame=1197348 fps=3641 q=-1.0 size=19845376kB time=05:33:46.68 bitrate=8117.8kbits/s speed=60.9x    frame=1198898 fps=3640 q=-1.0 size=19877376kB time=05:34:12.49 bitrate=8120.5kbits/s speed=60.9x    frame=1200393 fps=3639 q=-1.0 size=19908352kB time=05:34:37.36 bitrate=8123.0kbits/s speed=60.9x    frame=1202656 fps=3640 q=-1.0 size=19939328kB time=05:35:15.07 bitrate=8120.4kbits/s speed=60.9x    frame=1205073 fps=3642 q=-1.0 size=19970560kB time=05:35:55.29 bitrate=8116.9kbits/s speed=60.9x    frame=1207074 fps=3643 q=-1.0 size=20001024kB time=05:36:28.64 bitrate=8115.9kbits/s speed=60.9x    frame=1208632 fps=3642 q=-1.0 size=20033536kB time=05:36:54.58 bitrate=8118.6kbits/s speed=60.9x    frame=1210225 fps=3641 q=-1.0 size=20066816kB time=05:37:21.10 bitrate=8121.5kbits/s speed=60.9x    frame=1211685 fps=3640 q=-1.0 size=20097280kB time=05:37:45.43 bitrate=8124.0kbits/s speed=60.9x    frame=1213281 fps=3639 q=-1.0 size=20130048kB time=05:38:12.01 bitrate=8126.6kbits/s speed=60.9x    frame=1214827 fps=3638 q=-1.0 size=20162560kB time=05:38:37.74 bitrate=8129.4kbits/s speed=60.9x    frame=1216357 fps=3638 q=-1.0 size=20194048kB time=05:39:03.19 bitrate=8131.9kbits/s speed=60.8x    frame=1217930 fps=3637 q=-1.0 size=20227072kB time=05:39:29.40 bitrate=8134.8kbits/s speed=60.8x    frame=1219496 fps=3636 q=-1.0 size=20258816kB time=05:39:55.47 bitrate=8137.1kbits/s speed=60.8x    frame=1221075 fps=3635 q=-1.0 size=20291072kB time=05:40:21.73 bitrate=8139.6kbits/s speed=60.8x    frame=1222556 fps=3634 q=-1.0 size=20322304kB time=05:40:46.40 bitrate=8142.3kbits/s speed=60.8x    frame=1224118 fps=3634 q=-1.0 size=20353792kB time=05:41:12.41 bitrate=8144.5kbits/s speed=60.8x    frame=1226204 fps=3634 q=-1.0 size=20384256kB time=05:41:47.15 bitrate=8142.9kbits/s speed=60.8x    frame=1228507 fps=3636 q=-1.0 size=20415488kB time=05:42:25.44 bitrate=8140.2kbits/s speed=60.8x    frame=1230726 fps=3637 q=-1.0 size=20446976kB time=05:43:02.42 bitrate=8138.1kbits/s speed=60.8x    frame=1232205 fps=3636 q=-1.0 size=20478208kB time=05:43:27.00 bitrate=8140.8kbits/s speed=60.8x    frame=1233727 fps=3635 q=-1.0 size=20509184kB time=05:43:52.36 bitrate=8143.1kbits/s speed=60.8x    frame=1235332 fps=3634 q=-1.0 size=20542720kB time=05:44:19.08 bitrate=8145.9kbits/s speed=60.8x    frame=1236785 fps=3633 q=-1.0 size=20573440kB time=05:44:43.23 bitrate=8148.5kbits/s speed=60.8x    frame=1238367 fps=3633 q=-1.0 size=20605696kB time=05:45:09.59 bitrate=8150.9kbits/s speed=60.8x    frame=1239894 fps=3632 q=-1.0 size=20637440kB time=05:45:34.99 bitrate=8153.5kbits/s speed=60.7x    frame=1241440 fps=3631 q=-1.0 size=20669696kB time=05:46:00.75 bitrate=8156.1kbits/s speed=60.7x    frame=1242978 fps=3630 q=-1.0 size=20701696kB time=05:46:26.40 bitrate=8158.6kbits/s speed=60.7x    frame=1244430 fps=3629 q=-1.0 size=20732160kB time=05:46:50.57 bitrate=8161.1kbits/s speed=60.7x    frame=1245969 fps=3628 q=-1.0 size=20763648kB time=05:47:16.18 bitrate=8163.5kbits/s speed=60.7x    frame=1247478 fps=3627 q=-1.0 size=20794880kB time=05:47:41.29 bitrate=8165.9kbits/s speed=60.7x    frame=1249578 fps=3628 q=-1.0 size=20826624kB time=05:48:16.27 bitrate=8164.7kbits/s speed=60.7x    frame=1251972 fps=3630 q=-1.0 size=20857088kB time=05:48:56.13 bitrate=8161.1kbits/s speed=60.7x    frame=1254274 fps=3631 q=-1.0 size=20887296kB time=05:49:34.50 bitrate=8157.9kbits/s speed=60.7x    frame=1256146 fps=3632 q=-1.0 size=20920320kB time=05:50:05.65 bitrate=8158.7kbits/s speed=60.7x    frame=1257681 fps=3631 q=-1.0 size=20952064kB time=05:50:31.21 bitrate=8161.2kbits/s speed=60.7x    frame=1259149 fps=3630 q=-1.0 size=20983040kB time=05:50:55.66 bitrate=8163.7kbits/s speed=60.7x    frame=1260625 fps=3629 q=-1.0 size=21013504kB time=05:51:20.23 bitrate=8166.1kbits/s speed=60.7x    frame=1262168 fps=3628 q=-1.0 size=21045504kB time=05:51:45.96 bitrate=8168.5kbits/s speed=60.7x    frame=1264005 fps=3628 q=-1.0 size=21076480kB time=05:52:16.55 bitrate=8168.7kbits/s speed=60.7x    frame=1266372 fps=3630 q=-1.0 size=21104384kB time=05:52:55.95 bitrate=8164.3kbits/s speed=60.7x    frame=1268732 fps=3631 q=-1.0 size=21134080kB time=05:53:35.28 bitrate=8160.6kbits/s speed=60.7x    frame=1271018 fps=3632 q=-1.0 size=21163520kB time=05:54:13.36 bitrate=8157.4kbits/s speed=60.7x    frame=1272532 fps=3632 q=-1.0 size=21193984kB time=05:54:38.58 bitrate=8159.4kbits/s speed=60.7x    frame=1274068 fps=3631 q=-1.0 size=21226240kB time=05:55:04.14 bitrate=8162.0kbits/s speed=60.7x    frame=1275679 fps=3630 q=-1.0 size=21259264kB time=05:55:30.94 bitrate=8164.5kbits/s speed=60.7x    frame=1277046 fps=3629 q=-1.0 size=21287680kB time=05:55:53.70 bitrate=8166.7kbits/s speed=60.7x    frame=1278861 fps=3629 q=-1.0 size=21319680kB time=05:56:23.93 bitrate=8167.4kbits/s speed=60.7x    frame=1281161 fps=3630 q=-1.0 size=21350912kB time=05:57:02.25 bitrate=8164.7kbits/s speed=60.7x    frame=1283570 fps=3632 q=-1.0 size=21381888kB time=05:57:42.34 bitrate=8161.3kbits/s speed=60.7x    frame=1285436 fps=3632 q=-1.0 size=21414656kB time=05:58:13.44 bitrate=8162.0kbits/s speed=60.7x    frame=1286934 fps=3631 q=-1.0 size=21445632kB time=05:58:38.36 bitrate=8164.3kbits/s speed=60.7x    frame=1288484 fps=3630 q=-1.0 size=21477888kB time=05:59:04.20 bitrate=8166.8kbits/s speed=60.7x    frame=1289970 fps=3630 q=-1.0 size=21508608kB time=05:59:28.95 bitrate=8169.1kbits/s speed=60.7x    frame=1291489 fps=3629 q=-1.0 size=21540096kB time=05:59:54.24 bitrate=8171.5kbits/s speed=60.7x    frame=1293060 fps=3628 q=-1.0 size=21572864kB time=06:00:20.36 bitrate=8174.0kbits/s speed=60.7x    frame=1294612 fps=3627 q=-1.0 size=21604608kB time=06:00:46.23 bitrate=8176.2kbits/s speed=60.6x    frame=1296536 fps=3628 q=-1.0 size=21635840kB time=06:01:18.27 bitrate=8176.0kbits/s speed=60.7x    frame=1298246 fps=3627 q=-1.0 size=21666816kB time=06:01:46.77 bitrate=8176.9kbits/s speed=60.6x    frame=1299949 fps=3627 q=-1.0 size=21697536kB time=06:02:15.09 bitrate=8177.8kbits/s speed=60.6x    frame=1302175 fps=3629 q=-1.0 Lsize=21726320kB time=06:02:52.17 bitrate=8174.7kbits/s speed=60.7x    
video:21162489kB audio:520166kB subtitle:0kB other streams:0kB global headers:0kB muxing overhead: 0.201378%
